<svg xmlns="http://www.w3.org/2000/svg" xmlns:xlink="http://www.w3.org/1999/xlink" contentStyleType="text/css" data-diagram-type="SEQUENCE" height="952px" preserveAspectRatio="none" style="width:1490px;height:952px;background:#FFFFFF;" version="1.1" viewBox="0 0 1490 952" width="1490px" zoomAndPan="magnify"><defs/><g><rect fill="#ADD8E6" height="940.9297" style="stroke:#181818;stroke-width:0.5;" width="149.4766" x="71.9102" y="6"/><rect fill="#90EE90" height="940.9297" style="stroke:#181818;stroke-width:0.5;" width="200.7119" x="223.3867" y="6"/><rect fill="#FFB6C1" height="940.9297" style="stroke:#181818;stroke-width:0.5;" width="413.377" x="426.0986" y="6"/><rect fill="#FFFFE0" height="940.9297" style="stroke:#181818;stroke-width:0.5;" width="596.1826" x="841.4756" y="6"/><rect fill="transparent" height="59.2656" style="stroke:#000000;stroke-width:1.5;" width="245.812" x="65.9102" y="103.7266"/><rect fill="transparent" height="59.2656" style="stroke:#000000;stroke-width:1.5;" width="252.832" x="65.9102" y="176.9922"/><rect fill="transparent" height="586.9453" style="stroke:#000000;stroke-width:1.5;" width="1473.6582" x="10" y="292.3906"/><rect fill="transparent" height="398.6094" style="stroke:#000000;stroke-width:1.5;" width="1407.748" x="65.9102" y="459.7266"/><rect fill="transparent" height="281.5391" style="stroke:#000000;stroke-width:1.5;" width="871.7998" x="591.8584" y="541.7969"/><rect fill="transparent" height="250.4063" style="stroke:#000000;stroke-width:1.5;" width="851.7998" x="601.8584" y="565.9297"/><rect fill="transparent" height="118.2031" style="stroke:#000000;stroke-width:1.5;" width="608.1826" x="835.4756" y="648"/><g><title>User</title><rect fill="transparent" height="838.7422" width="8" x="38.9551" y="57.5938"/><line style="stroke:#181818;stroke-width:0.5;stroke-dasharray:5.0,5.0;" x1="42" x2="42" y1="57.5938" y2="896.3359"/></g><g><title>mw_log &lt;&lt;module&gt;&gt;</title><rect fill="transparent" height="838.7422" width="8" x="142.6484" y="57.5938"/><line style="stroke:#181818;stroke-width:0.5;stroke-dasharray:5.0,5.0;" x1="145.9102" x2="145.9102" y1="57.5938" y2="896.3359"/></g><g><title>mw_log_macro &lt;&lt;module&gt;&gt;</title><rect fill="transparent" height="838.7422" width="8" x="319.7427" y="57.5938"/><line style="stroke:#181818;stroke-width:0.5;stroke-dasharray:5.0,5.0;" x1="323.3867" x2="323.3867" y1="57.5938" y2="896.3359"/></g><g><title>Logger</title><rect fill="transparent" height="838.7422" width="8" x="511.9785" y="57.5938"/><line style="stroke:#181818;stroke-width:0.5;stroke-dasharray:5.0,5.0;" x1="515.0986" x2="515.0986" y1="57.5938" y2="896.3359"/></g><g><title>Writer</title><rect fill="transparent" height="838.7422" width="8" x="719.667" y="57.5938"/><line style="stroke:#181818;stroke-width:0.5;stroke-dasharray:5.0,5.0;" x1="722.8584" x2="722.8584" y1="57.5938" y2="896.3359"/></g><g><title>mw_log_fmt</title><rect fill="transparent" height="838.7422" width="8" x="890.7183" y="57.5938"/><line style="stroke:#181818;stroke-width:0.5;stroke-dasharray:5.0,5.0;" x1="894.4756" x2="894.4756" y1="57.5938" y2="896.3359"/></g><g><title>ConcreteType</title><rect fill="transparent" height="838.7422" width="8" x="1068.7764" y="57.5938"/><line style="stroke:#181818;stroke-width:0.5;stroke-dasharray:5.0,5.0;" x1="1071.9609" x2="1071.9609" y1="57.5938" y2="896.3359"/></g><g><title>ConcreteType</title><rect fill="transparent" height="838.7422" width="8" x="1313.625" y="57.5938"/><line style="stroke:#181818;stroke-width:0.5;stroke-dasharray:5.0,5.0;" x1="1317.5918" x2="1317.5918" y1="57.5938" y2="896.3359"/></g><rect fill="#E2E2F0" height="30.2969" rx="2.5" ry="2.5" style="stroke:#181818;stroke-width:0.5;" width="45.9102" x="20" y="26.2969"/><text fill="#000000" font-family="sans-serif" font-size="14" lengthAdjust="spacing" textLength="31.9102" x="27" y="46.292">User</text><rect fill="#E2E2F0" height="30.2969" rx="2.5" ry="2.5" style="stroke:#181818;stroke-width:0.5;" width="45.9102" x="20" y="895.3359"/><text fill="#000000" font-family="sans-serif" font-size="14" lengthAdjust="spacing" textLength="31.9102" x="27" y="915.3311">User</text><rect fill="#E2E2F0" height="30.2969" rx="2.5" ry="2.5" style="stroke:#181818;stroke-width:0.5;" width="141.4766" x="75.9102" y="26.2969"/><text fill="#000000" font-family="sans-serif" font-size="14" lengthAdjust="spacing" textLength="127.4766" x="82.9102" y="46.292">mw_log &#171;module&#187;</text><rect fill="#E2E2F0" height="30.2969" rx="2.5" ry="2.5" style="stroke:#181818;stroke-width:0.5;" width="141.4766" x="75.9102" y="895.3359"/><text fill="#000000" font-family="sans-serif" font-size="14" lengthAdjust="spacing" textLength="127.4766" x="82.9102" y="915.3311">mw_log &#171;module&#187;</text><rect fill="#E2E2F0" height="30.2969" rx="2.5" ry="2.5" style="stroke:#181818;stroke-width:0.5;" width="192.7119" x="227.3867" y="26.2969"/><text fill="#000000" font-family="sans-serif" font-size="14" lengthAdjust="spacing" textLength="178.7119" x="234.3867" y="46.292">mw_log_macro &#171;module&#187;</text><rect fill="#E2E2F0" height="30.2969" rx="2.5" ry="2.5" style="stroke:#181818;stroke-width:0.5;" width="192.7119" x="227.3867" y="895.3359"/><text fill="#000000" font-family="sans-serif" font-size="14" lengthAdjust="spacing" textLength="178.7119" x="234.3867" y="915.3311">mw_log_macro &#171;module&#187;</text><rect fill="#E2E2F0" height="46.5938" rx="2.5" ry="2.5" style="stroke:#181818;stroke-width:0.5;" width="171.7598" x="430.0986" y="10"/><text fill="#000000" font-family="sans-serif" font-size="14" lengthAdjust="spacing" textLength="48.5078" x="491.7246" y="29.9951">Logger</text><text fill="#000000" font-family="sans-serif" font-size="14" lengthAdjust="spacing" textLength="157.7598" x="437.0986" y="46.292">&#171;Log implementation&#187;</text><rect fill="#E2E2F0" height="46.5938" rx="2.5" ry="2.5" style="stroke:#181818;stroke-width:0.5;" width="171.7598" x="430.0986" y="895.3359"/><text fill="#000000" font-family="sans-serif" font-size="14" lengthAdjust="spacing" textLength="48.5078" x="491.7246" y="915.3311">Logger</text><text fill="#000000" font-family="sans-serif" font-size="14" lengthAdjust="spacing" textLength="157.7598" x="437.0986" y="931.6279">&#171;Log implementation&#187;</text><rect fill="#E2E2F0" height="46.5938" rx="2.5" ry="2.5" style="stroke:#181818;stroke-width:0.5;" width="223.6172" x="611.8584" y="10"/><text fill="#000000" font-family="sans-serif" font-size="14" lengthAdjust="spacing" textLength="43.3467" x="701.9937" y="29.9951">Writer</text><text fill="#000000" font-family="sans-serif" font-size="14" lengthAdjust="spacing" textLength="209.6172" x="618.8584" y="46.292">&#171;ScoreWrite implementation&#187;</text><rect fill="#E2E2F0" height="46.5938" rx="2.5" ry="2.5" style="stroke:#181818;stroke-width:0.5;" width="223.6172" x="611.8584" y="895.3359"/><text fill="#000000" font-family="sans-serif" font-size="14" lengthAdjust="spacing" textLength="43.3467" x="701.9937" y="915.3311">Writer</text><text fill="#000000" font-family="sans-serif" font-size="14" lengthAdjust="spacing" textLength="209.6172" x="618.8584" y="931.6279">&#171;ScoreWrite implementation&#187;</text><rect fill="#E2E2F0" height="46.5938" rx="2.5" ry="2.5" style="stroke:#181818;stroke-width:0.5;" width="98.4854" x="845.4756" y="10"/><text fill="#000000" font-family="sans-serif" font-size="14" lengthAdjust="spacing" textLength="84.4854" x="852.4756" y="29.9951">mw_log_fmt</text><text fill="#000000" font-family="sans-serif" font-size="14" lengthAdjust="spacing" textLength="69.5967" x="859.9199" y="46.292">&#171;module&#187;</text><rect fill="#E2E2F0" height="46.5938" rx="2.5" ry="2.5" style="stroke:#181818;stroke-width:0.5;" width="98.4854" x="845.4756" y="895.3359"/><text fill="#000000" font-family="sans-serif" font-size="14" lengthAdjust="spacing" textLength="84.4854" x="852.4756" y="915.3311">mw_log_fmt</text><text fill="#000000" font-family="sans-serif" font-size="14" lengthAdjust="spacing" textLength="69.5967" x="859.9199" y="931.6279">&#171;module&#187;</text><rect fill="#E2E2F0" height="46.5938" rx="2.5" ry="2.5" style="stroke:#181818;stroke-width:0.5;" width="237.6309" x="953.9609" y="10"/><text fill="#000000" font-family="sans-serif" font-size="14" lengthAdjust="spacing" textLength="97.7197" x="1023.9165" y="29.9951">ConcreteType</text><text fill="#000000" font-family="sans-serif" font-size="14" lengthAdjust="spacing" textLength="223.6309" x="960.9609" y="46.292">&#171;ScoreDisplay implementation&#187;</text><rect fill="#E2E2F0" height="46.5938" rx="2.5" ry="2.5" style="stroke:#181818;stroke-width:0.5;" width="237.6309" x="953.9609" y="895.3359"/><text fill="#000000" font-family="sans-serif" font-size="14" lengthAdjust="spacing" textLength="97.7197" x="1023.9165" y="915.3311">ConcreteType</text><text fill="#000000" font-family="sans-serif" font-size="14" lengthAdjust="spacing" textLength="223.6309" x="960.9609" y="931.6279">&#171;ScoreDisplay implementation&#187;</text><rect fill="#E2E2F0" height="46.5938" rx="2.5" ry="2.5" style="stroke:#181818;stroke-width:0.5;" width="232.0664" x="1201.5918" y="10"/><text fill="#000000" font-family="sans-serif" font-size="14" lengthAdjust="spacing" textLength="97.7197" x="1268.7651" y="29.9951">ConcreteType</text><text fill="#000000" font-family="sans-serif" font-size="14" lengthAdjust="spacing" textLength="218.0664" x="1208.5918" y="46.292">&#171;ScoreDebug implementation&#187;</text><rect fill="#E2E2F0" height="46.5938" rx="2.5" ry="2.5" style="stroke:#181818;stroke-width:0.5;" width="232.0664" x="1201.5918" y="895.3359"/><text fill="#000000" font-family="sans-serif" font-size="14" lengthAdjust="spacing" textLength="97.7197" x="1268.7651" y="915.3311">ConcreteType</text><text fill="#000000" font-family="sans-serif" font-size="14" lengthAdjust="spacing" textLength="218.0664" x="1208.5918" y="931.6279">&#171;ScoreDebug implementation&#187;</text><polygon fill="#181818" points="134.6484,84.7266,144.6484,88.7266,134.6484,92.7266,138.6484,88.7266" style="stroke:#181818;stroke-width:1;"/><line style="stroke:#181818;stroke-width:1;" x1="42.9551" x2="140.6484" y1="88.7266" y2="88.7266"/><text fill="#000000" font-family="sans-serif" font-size="13" lengthAdjust="spacing" textLength="35.1724" x="49.9551" y="83.6606">log!()</text><path d="M65.9102,103.7266 L130.353,103.7266 L130.353,110.8594 L120.353,120.8594 L65.9102,120.8594 L65.9102,103.7266 " fill="#EEEEEE" style="stroke:#000000;stroke-width:1.5;"/><rect fill="transparent" height="59.2656" style="stroke:#000000;stroke-width:1.5;" width="245.812" x="65.9102" y="103.7266"/><text fill="#000000" font-family="sans-serif" font-size="13" font-weight="bold" lengthAdjust="spacing" textLength="19.4429" x="80.9102" y="116.7935">alt</text><text fill="#000000" font-family="sans-serif" font-size="11" font-weight="bold" lengthAdjust="spacing" textLength="161.3691" x="145.353" y="115.937">[no-user-provided-logger]</text><line style="stroke:#181818;stroke-width:1;" x1="146.6484" x2="188.6484" y1="141.9922" y2="141.9922"/><line style="stroke:#181818;stroke-width:1;" x1="188.6484" x2="188.6484" y1="141.9922" y2="154.9922"/><line style="stroke:#181818;stroke-width:1;" x1="147.6484" x2="188.6484" y1="154.9922" y2="154.9922"/><polygon fill="#181818" points="157.6484,150.9922,147.6484,154.9922,157.6484,158.9922,153.6484,154.9922" style="stroke:#181818;stroke-width:1;"/><text fill="#000000" font-family="sans-serif" font-size="13" lengthAdjust="spacing" textLength="51.5557" x="153.6484" y="136.9263">logger()</text><path d="M65.9102,176.9922 L130.353,176.9922 L130.353,184.125 L120.353,194.125 L65.9102,194.125 L65.9102,176.9922 " fill="#EEEEEE" style="stroke:#000000;stroke-width:1.5;"/><rect fill="transparent" height="59.2656" style="stroke:#000000;stroke-width:1.5;" width="252.832" x="65.9102" y="176.9922"/><text fill="#000000" font-family="sans-serif" font-size="13" font-weight="bold" lengthAdjust="spacing" textLength="19.4429" x="80.9102" y="190.0591">alt</text><text fill="#000000" font-family="sans-serif" font-size="11" font-weight="bold" lengthAdjust="spacing" textLength="168.3892" x="145.353" y="189.2026">[no-user-provided-context]</text><line style="stroke:#181818;stroke-width:1;" x1="146.6484" x2="188.6484" y1="215.2578" y2="215.2578"/><line style="stroke:#181818;stroke-width:1;" x1="188.6484" x2="188.6484" y1="215.2578" y2="228.2578"/><line style="stroke:#181818;stroke-width:1;" x1="147.6484" x2="188.6484" y1="228.2578" y2="228.2578"/><polygon fill="#181818" points="157.6484,224.2578,147.6484,228.2578,157.6484,232.2578,153.6484,228.2578" style="stroke:#181818;stroke-width:1;"/><text fill="#000000" font-family="sans-serif" font-size="13" lengthAdjust="spacing" textLength="94.9165" x="153.6484" y="210.1919">module_path()</text><line style="stroke:#181818;stroke-width:1;" x1="146.6484" x2="188.6484" y1="264.3906" y2="264.3906"/><line style="stroke:#181818;stroke-width:1;" x1="188.6484" x2="188.6484" y1="264.3906" y2="277.3906"/><line style="stroke:#181818;stroke-width:1;" x1="147.6484" x2="188.6484" y1="277.3906" y2="277.3906"/><polygon fill="#181818" points="157.6484,273.3906,147.6484,277.3906,157.6484,281.3906,153.6484,277.3906" style="stroke:#181818;stroke-width:1;"/><text fill="#000000" font-family="sans-serif" font-size="13" lengthAdjust="spacing" textLength="75.8799" x="153.6484" y="259.3247">max_level()</text><path d="M10,292.3906 L74.4429,292.3906 L74.4429,299.5234 L64.4429,309.5234 L10,309.5234 L10,292.3906 " fill="#EEEEEE" style="stroke:#000000;stroke-width:1.5;"/><rect fill="transparent" height="586.9453" style="stroke:#000000;stroke-width:1.5;" width="1473.6582" x="10" y="292.3906"/><text fill="#000000" font-family="sans-serif" font-size="13" font-weight="bold" lengthAdjust="spacing" textLength="19.4429" x="25" y="305.4575">alt</text><text fill="#000000" font-family="sans-serif" font-size="11" font-weight="bold" lengthAdjust="spacing" textLength="143.3169" x="89.4429" y="304.6011">[log-level-check-failed]</text><polygon fill="#181818" points="53.9551,311.5234,43.9551,315.5234,53.9551,319.5234,49.9551,315.5234" style="stroke:#181818;stroke-width:1;"/><line style="stroke:#181818;stroke-width:1;stroke-dasharray:2.0,2.0;" x1="47.9551" x2="145.6484" y1="315.5234" y2="315.5234"/><line style="stroke:#000000;stroke-width:1;stroke-dasharray:2.0,2.0;" x1="10" x2="1483.6582" y1="324.5234" y2="324.5234"/><text fill="#000000" font-family="sans-serif" font-size="11" font-weight="bold" lengthAdjust="spacing" textLength="151.959" x="15" y="334.7339">[log-level-check-passed]</text><polygon fill="#181818" points="311.7427,355.4609,321.7427,359.4609,311.7427,363.4609,315.7427,359.4609" style="stroke:#181818;stroke-width:1;"/><line style="stroke:#181818;stroke-width:1;" x1="146.6484" x2="317.7427" y1="359.4609" y2="359.4609"/><text fill="#000000" font-family="sans-serif" font-size="13" lengthAdjust="spacing" textLength="149.9063" x="153.6484" y="354.395">mw_log_format_args!()</text><polygon fill="#181818" points="157.6484,369.4609,147.6484,373.4609,157.6484,377.4609,153.6484,373.4609" style="stroke:#181818;stroke-width:1;"/><line style="stroke:#181818;stroke-width:1;stroke-dasharray:2.0,2.0;" x1="151.6484" x2="322.7427" y1="373.4609" y2="373.4609"/><polygon fill="#181818" points="503.9785,398.5938,513.9785,402.5938,503.9785,406.5938,507.9785,402.5938" style="stroke:#181818;stroke-width:1;"/><line style="stroke:#181818;stroke-width:1;" x1="146.6484" x2="509.9785" y1="402.5938" y2="402.5938"/><text fill="#000000" font-family="sans-serif" font-size="13" lengthAdjust="spacing" textLength="29.9609" x="153.6484" y="397.5278">log()</text><line style="stroke:#181818;stroke-width:1;" x1="515.9785" x2="557.9785" y1="431.7266" y2="431.7266"/><line style="stroke:#181818;stroke-width:1;" x1="557.9785" x2="557.9785" y1="431.7266" y2="444.7266"/><line style="stroke:#181818;stroke-width:1;" x1="516.9785" x2="557.9785" y1="444.7266" y2="444.7266"/><polygon fill="#181818" points="526.9785,440.7266,516.9785,444.7266,526.9785,448.7266,522.9785,444.7266" style="stroke:#181818;stroke-width:1;"/><text fill="#000000" font-family="sans-serif" font-size="13" lengthAdjust="spacing" textLength="62.4609" x="522.9785" y="426.6606">enabled()</text><path d="M65.9102,459.7266 L130.353,459.7266 L130.353,466.8594 L120.353,476.8594 L65.9102,476.8594 L65.9102,459.7266 " fill="#EEEEEE" style="stroke:#000000;stroke-width:1.5;"/><rect fill="transparent" height="398.6094" style="stroke:#000000;stroke-width:1.5;" width="1407.748" x="65.9102" y="459.7266"/><text fill="#000000" font-family="sans-serif" font-size="13" font-weight="bold" lengthAdjust="spacing" textLength="19.4429" x="80.9102" y="472.7935">alt</text><text fill="#000000" font-family="sans-serif" font-size="11" font-weight="bold" lengthAdjust="spacing" textLength="129.4863" x="145.353" y="471.937">[logger-not-enabled]</text><polygon fill="#181818" points="157.6484,478.8594,147.6484,482.8594,157.6484,486.8594,153.6484,482.8594" style="stroke:#181818;stroke-width:1;"/><line style="stroke:#181818;stroke-width:1;stroke-dasharray:2.0,2.0;" x1="151.6484" x2="514.9785" y1="482.8594" y2="482.8594"/><line style="stroke:#000000;stroke-width:1;stroke-dasharray:2.0,2.0;" x1="65.9102" x2="1473.6582" y1="491.8594" y2="491.8594"/><text fill="#000000" font-family="sans-serif" font-size="11" font-weight="bold" lengthAdjust="spacing" textLength="104.2744" x="70.9102" y="502.0698">[logger-enabled]</text><polygon fill="#181818" points="882.7183,522.7969,892.7183,526.7969,882.7183,530.7969,886.7183,526.7969" style="stroke:#181818;stroke-width:1;"/><line style="stroke:#181818;stroke-width:1;" x1="515.9785" x2="888.7183" y1="526.7969" y2="526.7969"/><text fill="#000000" font-family="sans-serif" font-size="13" lengthAdjust="spacing" textLength="277.583" x="522.9785" y="521.731">write(writer: ScoreWrite, args: Arguments)</text><path d="M591.8584,541.7969 L668.4824,541.7969 L668.4824,548.9297 L658.4824,558.9297 L591.8584,558.9297 L591.8584,541.7969 " fill="#EEEEEE" style="stroke:#000000;stroke-width:1.5;"/><rect fill="transparent" height="281.5391" style="stroke:#000000;stroke-width:1.5;" width="871.7998" x="591.8584" y="541.7969"/><text fill="#000000" font-family="sans-serif" font-size="13" font-weight="bold" lengthAdjust="spacing" textLength="31.624" x="606.8584" y="554.8638">loop</text><text fill="#000000" font-family="sans-serif" font-size="11" font-weight="bold" lengthAdjust="spacing" textLength="214.3657" x="683.4824" y="554.0073">[process-format-string-fragments]</text><path d="M601.8584,565.9297 L666.3013,565.9297 L666.3013,573.0625 L656.3013,583.0625 L601.8584,583.0625 L601.8584,565.9297 " fill="#EEEEEE" style="stroke:#000000;stroke-width:1.5;"/><rect fill="transparent" height="250.4063" style="stroke:#000000;stroke-width:1.5;" width="851.7998" x="601.8584" y="565.9297"/><text fill="#000000" font-family="sans-serif" font-size="13" font-weight="bold" lengthAdjust="spacing" textLength="19.4429" x="616.8584" y="578.9966">alt</text><text fill="#000000" font-family="sans-serif" font-size="11" font-weight="bold" lengthAdjust="spacing" textLength="61.8159" x="681.3013" y="578.1401">[is-literal]</text><polygon fill="#181818" points="734.667,600.1953,724.667,604.1953,734.667,608.1953,730.667,604.1953" style="stroke:#181818;stroke-width:1;"/><line style="stroke:#181818;stroke-width:1;" x1="728.667" x2="893.7183" y1="604.1953" y2="604.1953"/><text fill="#000000" font-family="sans-serif" font-size="13" lengthAdjust="spacing" textLength="66.5425" x="740.667" y="599.1294">write_str()</text><polygon fill="#181818" points="882.7183,614.1953,892.7183,618.1953,882.7183,622.1953,886.7183,618.1953" style="stroke:#181818;stroke-width:1;"/><line style="stroke:#181818;stroke-width:1;stroke-dasharray:2.0,2.0;" x1="723.667" x2="888.7183" y1="618.1953" y2="618.1953"/><line style="stroke:#000000;stroke-width:1;stroke-dasharray:2.0,2.0;" x1="601.8584" x2="1453.6582" y1="627.1953" y2="627.1953"/><text fill="#000000" font-family="sans-serif" font-size="11" font-weight="bold" lengthAdjust="spacing" textLength="97.9043" x="606.8584" y="637.4058">[is-placeholder]</text><path d="M835.4756,648 L899.9185,648 L899.9185,655.1328 L889.9185,665.1328 L835.4756,665.1328 L835.4756,648 " fill="#EEEEEE" style="stroke:#000000;stroke-width:1.5;"/><rect fill="transparent" height="118.2031" style="stroke:#000000;stroke-width:1.5;" width="608.1826" x="835.4756" y="648"/><text fill="#000000" font-family="sans-serif" font-size="13" font-weight="bold" lengthAdjust="spacing" textLength="19.4429" x="850.4756" y="661.0669">alt</text><text fill="#000000" font-family="sans-serif" font-size="11" font-weight="bold" lengthAdjust="spacing" textLength="122.2407" x="914.9185" y="660.2104">[display-requested]</text><polygon fill="#181818" points="1060.7764,682.2656,1070.7764,686.2656,1060.7764,690.2656,1064.7764,686.2656" style="stroke:#181818;stroke-width:1;"/><line style="stroke:#181818;stroke-width:1;" x1="894.7183" x2="1066.7764" y1="686.2656" y2="686.2656"/><text fill="#000000" font-family="sans-serif" font-size="13" lengthAdjust="spacing" textLength="32.481" x="901.7183" y="681.1997">fmt()</text><polygon fill="#181818" points="905.7183,696.2656,895.7183,700.2656,905.7183,704.2656,901.7183,700.2656" style="stroke:#181818;stroke-width:1;"/><line style="stroke:#181818;stroke-width:1;stroke-dasharray:2.0,2.0;" x1="899.7183" x2="1071.7764" y1="700.2656" y2="700.2656"/><line style="stroke:#000000;stroke-width:1;stroke-dasharray:2.0,2.0;" x1="835.4756" x2="1443.6582" y1="709.2656" y2="709.2656"/><text fill="#000000" font-family="sans-serif" font-size="11" font-weight="bold" lengthAdjust="spacing" textLength="116.7246" x="840.4756" y="719.4761">[debug-requested]</text><polygon fill="#181818" points="1305.625,740.2031,1315.625,744.2031,1305.625,748.2031,1309.625,744.2031" style="stroke:#181818;stroke-width:1;"/><line style="stroke:#181818;stroke-width:1;" x1="894.7183" x2="1311.625" y1="744.2031" y2="744.2031"/><text fill="#000000" font-family="sans-serif" font-size="13" lengthAdjust="spacing" textLength="32.481" x="901.7183" y="739.1372">fmt()</text><polygon fill="#181818" points="905.7183,754.2031,895.7183,758.2031,905.7183,762.2031,901.7183,758.2031" style="stroke:#181818;stroke-width:1;"/><line style="stroke:#181818;stroke-width:1;stroke-dasharray:2.0,2.0;" x1="899.7183" x2="1316.625" y1="758.2031" y2="758.2031"/><polygon fill="#181818" points="734.667,790.3359,724.667,794.3359,734.667,798.3359,730.667,794.3359" style="stroke:#181818;stroke-width:1;"/><line style="stroke:#181818;stroke-width:1;" x1="728.667" x2="893.7183" y1="794.3359" y2="794.3359"/><text fill="#000000" font-family="sans-serif" font-size="13" lengthAdjust="spacing" textLength="100.1533" x="740.667" y="789.27">write_&lt;type&gt;()</text><polygon fill="#181818" points="882.7183,804.3359,892.7183,808.3359,882.7183,812.3359,886.7183,808.3359" style="stroke:#181818;stroke-width:1;"/><line style="stroke:#181818;stroke-width:1;stroke-dasharray:2.0,2.0;" x1="723.667" x2="888.7183" y1="808.3359" y2="808.3359"/><polygon fill="#181818" points="526.9785,832.3359,516.9785,836.3359,526.9785,840.3359,522.9785,836.3359" style="stroke:#181818;stroke-width:1;"/><line style="stroke:#181818;stroke-width:1;stroke-dasharray:2.0,2.0;" x1="520.9785" x2="893.7183" y1="836.3359" y2="836.3359"/><polygon fill="#181818" points="157.6484,846.3359,147.6484,850.3359,157.6484,854.3359,153.6484,850.3359" style="stroke:#181818;stroke-width:1;"/><line style="stroke:#181818;stroke-width:1;stroke-dasharray:2.0,2.0;" x1="151.6484" x2="514.9785" y1="850.3359" y2="850.3359"/><polygon fill="#181818" points="53.9551,867.3359,43.9551,871.3359,53.9551,875.3359,49.9551,871.3359" style="stroke:#181818;stroke-width:1;"/><line style="stroke:#181818;stroke-width:1;stroke-dasharray:2.0,2.0;" x1="47.9551" x2="145.6484" y1="871.3359" y2="871.3359"/><!--SRC=[dLHDZziW4BtxLz3j9P7A7uWiI_sGUjd3IjkggbJ98lR4GOk10jva_tq7Z1sJaEnsVKgOzzwy6MRGp3ZUSCsa8tS_BPWxmYnXZLEcABRgI3xUysxlleW12ht4zeTQg8wKPQ_QGK1L1U9uMe1i2PAN2jyDWCn9r3rhZCeBZR6St0ENJwdQlUewC7zaMU8lmdije0VfcEDAHb4H82djb-5kf3qsoa3ucsSV0Z9dvZS8eGxPudQzyzgvsZ2KKhugsHXmyED5mspe6xTQi9Uy9UiHTJj2tY86sw6xAUK1fnB3711QHSjaurluORN6Y714AZhWn51jr3DleQMnlmI_I3YZOXJ9A7z5e57ImT5TKnYxM6lczfDC3iMEjO1d49DFFARXW3PxQ9xeZd41RP84-N7cGLYuO6XcxHcZIaRKfustgapFNCrCPtsZJfG8f3EpEDCR-pCsobltqNYsZ89aMxG_8MA16ADIEHgZ8RGKECiwLUbfroZLOb0nRnZ_rRW46t9Qba_4rxeXdqqt-A6owuMIqWGljm5hwTWOQftXigCxmxg0di5JCTnIuNCmaOGMZVH-qDrePN9Me_1gVK6989fKaw12Ap0fhb03UoNQEC7dlkAMKGD_1x1kqR3h5fFzHATudF7elnHvm-viEQpgUzo4D-0DNWBkDIUo_RzRAXs-HzNxBcgHA-n-Bk6yAJSsO2bsyG3um3y0]--></g></svg>