<svg xmlns="http://www.w3.org/2000/svg" xmlns:xlink="http://www.w3.org/1999/xlink" contentStyleType="text/css" data-diagram-type="CLASS" height="578px" preserveAspectRatio="none" style="width:1686px;height:578px;background:#FFFFFF;" version="1.1" viewBox="0 0 1686 578" width="1686px" zoomAndPan="magnify"><defs/><g><!--cluster log--><g id="cluster_log"><path d="M8.5,6 L33.9385,6 A3.75,3.75 0 0 1 36.4385,8.5 L43.4385,28.2969 L1676.5,28.2969 A2.5,2.5 0 0 1 1679,30.7969 L1679,568.5 A2.5,2.5 0 0 1 1676.5,571 L8.5,571 A2.5,2.5 0 0 1 6,568.5 L6,8.5 A2.5,2.5 0 0 1 8.5,6 " fill="transparent" style="stroke:#000000;stroke-width:1.5;"/><line style="stroke:#000000;stroke-width:1.5;" x1="6" x2="43.4385" y1="28.2969" y2="28.2969"/><text fill="#000000" font-family="sans-serif" font-size="14" font-weight="bold" lengthAdjust="spacing" textLength="24.4385" x="10" y="20.9951">log</text><text fill="#000000" font-family="sans-serif" font-size="14" font-style="italic" lengthAdjust="spacing" textLength="96.4824" x="798.2588" y="43.292">&#171;component&#187;</text></g><!--cluster mw_log_fmt--><g id="cluster_mw_log_fmt"><path d="M577.5,95.5 L671.8311,95.5 A3.75,3.75 0 0 1 674.3311,98 L681.3311,117.7969 L1644.5,117.7969 A2.5,2.5 0 0 1 1647,120.2969 L1647,265 A2.5,2.5 0 0 1 1644.5,267.5 L577.5,267.5 A2.5,2.5 0 0 1 575,265 L575,98 A2.5,2.5 0 0 1 577.5,95.5 " fill="transparent" style="stroke:#000000;stroke-width:1.5;"/><line style="stroke:#000000;stroke-width:1.5;" x1="575" x2="681.3311" y1="117.7969" y2="117.7969"/><text fill="#000000" font-family="sans-serif" font-size="14" font-weight="bold" lengthAdjust="spacing" textLength="93.3311" x="579" y="110.4951">mw_log_fmt</text></g><!--class Level--><g id="elem_Level"><rect codeLine="3" fill="#F1F1F1" height="154.0469" id="Level" rx="2.5" ry="2.5" style="stroke:#181818;stroke-width:0.5;" width="80.2012" x="112" y="393"/><ellipse cx="127" cy="413.1328" fill="#EB937F" rx="11" ry="11" style="stroke:#181818;stroke-width:1;"/><path d="M131.1094,419.1328 L123.3906,419.1328 L123.3906,406.7422 L131.1094,406.7422 L131.1094,408.8984 L125.8438,408.8984 L125.8438,411.5703 L130.6094,411.5703 L130.6094,413.7266 L125.8438,413.7266 L125.8438,416.9766 L131.1094,416.9766 L131.1094,419.1328 Z " fill="#000000"/><text fill="#000000" font-family="sans-serif" font-size="12" font-style="italic" lengthAdjust="spacing" textLength="49.0957" x="140.5527" y="409.1387">&#171;enum&#187;</text><ellipse cx="146" cy="419.6172" fill="#84BE84" rx="3" ry="3" style="stroke:#038048;stroke-width:1;"/><text fill="#000000" font-family="sans-serif" font-size="14" lengthAdjust="spacing" textLength="37.2012" x="152" y="424.9639">Level</text><line style="stroke:#181818;stroke-width:0.5;" x1="113" x2="191.2012" y1="433.2656" y2="433.2656"/><text fill="#000000" font-family="sans-serif" font-size="14" lengthAdjust="spacing" textLength="34.5898" x="118" y="450.2607">Fatal</text><text fill="#000000" font-family="sans-serif" font-size="14" lengthAdjust="spacing" textLength="34.6787" x="118" y="466.5576">Error</text><text fill="#000000" font-family="sans-serif" font-size="14" lengthAdjust="spacing" textLength="37.0508" x="118" y="482.8545">Warn</text><text fill="#000000" font-family="sans-serif" font-size="14" lengthAdjust="spacing" textLength="26.4961" x="118" y="499.1514">Info</text><text fill="#000000" font-family="sans-serif" font-size="14" lengthAdjust="spacing" textLength="46.04" x="118" y="515.4482">Debug</text><text fill="#000000" font-family="sans-serif" font-size="14" lengthAdjust="spacing" textLength="39.1973" x="118" y="531.7451">Trace</text><line style="stroke:#181818;stroke-width:0.5;" x1="113" x2="191.2012" y1="539.0469" y2="539.0469"/></g><!--class LevelFilter--><g id="elem_LevelFilter"><rect codeLine="12" fill="#F1F1F1" height="170.3438" id="LevelFilter" rx="2.5" ry="2.5" style="stroke:#181818;stroke-width:0.5;" width="115.8916" x="227" y="385"/><ellipse cx="242" cy="405.1328" fill="#EB937F" rx="11" ry="11" style="stroke:#181818;stroke-width:1;"/><path d="M246.1094,411.1328 L238.3906,411.1328 L238.3906,398.7422 L246.1094,398.7422 L246.1094,400.8984 L240.8438,400.8984 L240.8438,403.5703 L245.6094,403.5703 L245.6094,405.7266 L240.8438,405.7266 L240.8438,408.9766 L246.1094,408.9766 L246.1094,411.1328 Z " fill="#000000"/><text fill="#000000" font-family="sans-serif" font-size="12" font-style="italic" lengthAdjust="spacing" textLength="49.0957" x="273.3979" y="401.1387">&#171;enum&#187;</text><ellipse cx="261" cy="411.6172" fill="#84BE84" rx="3" ry="3" style="stroke:#038048;stroke-width:1;"/><text fill="#000000" font-family="sans-serif" font-size="14" lengthAdjust="spacing" textLength="72.8916" x="267" y="416.9639">LevelFilter</text><line style="stroke:#181818;stroke-width:0.5;" x1="228" x2="341.8916" y1="425.2656" y2="425.2656"/><text fill="#000000" font-family="sans-serif" font-size="14" lengthAdjust="spacing" textLength="20.877" x="233" y="442.2607">Off</text><text fill="#000000" font-family="sans-serif" font-size="14" lengthAdjust="spacing" textLength="34.5898" x="233" y="458.5576">Fatal</text><text fill="#000000" font-family="sans-serif" font-size="14" lengthAdjust="spacing" textLength="34.6787" x="233" y="474.8545">Error</text><text fill="#000000" font-family="sans-serif" font-size="14" lengthAdjust="spacing" textLength="37.0508" x="233" y="491.1514">Warn</text><text fill="#000000" font-family="sans-serif" font-size="14" lengthAdjust="spacing" textLength="26.4961" x="233" y="507.4482">Info</text><text fill="#000000" font-family="sans-serif" font-size="14" lengthAdjust="spacing" textLength="46.04" x="233" y="523.7451">Debug</text><text fill="#000000" font-family="sans-serif" font-size="14" lengthAdjust="spacing" textLength="39.1973" x="233" y="540.042">Trace</text><line style="stroke:#181818;stroke-width:0.5;" x1="228" x2="341.8916" y1="547.3438" y2="547.3438"/></g><!--class mw_log--><g id="elem_mw_log"><rect codeLine="22" fill="#F1F1F1" height="268.125" id="mw_log" rx="2.5" ry="2.5" style="stroke:#181818;stroke-width:0.5;" width="526.0078" x="22" y="57"/><ellipse cx="252.8623" cy="77.1328" fill="#ADD1B2" rx="11" ry="11" style="stroke:#181818;stroke-width:1;"/><path d="M255.8311,82.7734 Q255.2529,83.0703 254.6123,83.2109 Q253.9717,83.3672 253.2686,83.3672 Q250.7686,83.3672 249.4404,81.7266 Q248.1279,80.0703 248.1279,76.9453 Q248.1279,73.8203 249.4404,72.1641 Q250.7686,70.5078 253.2686,70.5078 Q253.9717,70.5078 254.6123,70.6641 Q255.2686,70.8203 255.8311,71.1172 L255.8311,73.8359 Q255.2061,73.2578 254.6123,72.9922 Q254.0186,72.7109 253.3936,72.7109 Q252.0498,72.7109 251.3623,73.7891 Q250.6748,74.8516 250.6748,76.9453 Q250.6748,79.0391 251.3623,80.1172 Q252.0498,81.1797 253.3936,81.1797 Q254.0186,81.1797 254.6123,80.9141 Q255.2061,80.6328 255.8311,80.0547 L255.8311,82.7734 Z " fill="#000000"/><text fill="#000000" font-family="sans-serif" font-size="12" font-style="italic" lengthAdjust="spacing" textLength="59.7832" x="271.3623" y="73.1387">&#171;module&#187;</text><text fill="#000000" font-family="sans-serif" font-size="14" lengthAdjust="spacing" textLength="53.4297" x="274.5391" y="88.9639">mw_log</text><line style="stroke:#181818;stroke-width:0.5;" x1="23" x2="547.0078" y1="97.2656" y2="97.2656"/><line style="stroke:#181818;stroke-width:0.5;" x1="23" x2="547.0078" y1="105.2656" y2="105.2656"/><ellipse cx="33" cy="118.9141" fill="#84BE84" rx="3" ry="3" style="stroke:#038048;stroke-width:1;"/><text fill="#000000" font-family="sans-serif" font-size="14" lengthAdjust="spacing" textLength="500.0078" x="42" y="122.2607">set_global_logger(logger: Box&lt;dyn Log&gt;) : Result&lt;(), SetLoggerError&gt;</text><ellipse cx="33" cy="135.2109" fill="#84BE84" rx="3" ry="3" style="stroke:#038048;stroke-width:1;"/><text fill="#000000" font-family="sans-serif" font-size="14" lengthAdjust="spacing" textLength="250.0039" x="42" y="138.5576">set_max_level(level: LevelFilter) : ()</text><ellipse cx="33" cy="151.5078" fill="#84BE84" rx="3" ry="3" style="stroke:#038048;stroke-width:1;"/><text fill="#000000" font-family="sans-serif" font-size="14" lengthAdjust="spacing" textLength="168.2256" x="42" y="154.8545">max_level() : LevelFilter</text><ellipse cx="33" cy="167.8047" fill="#84BE84" rx="3" ry="3" style="stroke:#038048;stroke-width:1;"/><text fill="#000000" font-family="sans-serif" font-size="14" lengthAdjust="spacing" textLength="232.2373" x="42" y="171.1514">global_logger() : &amp;'static dyn Log</text><text fill="#000000" font-family="sans-serif" font-size="14" lengthAdjust="spacing" textLength="4.4502" x="42" y="187.4482">&#160;</text><ellipse cx="33" cy="200.3984" fill="#84BE84" rx="3" ry="3" style="stroke:#038048;stroke-width:1;"/><text fill="#000000" font-family="sans-serif" font-size="14" lengthAdjust="spacing" textLength="264.8652" x="42" y="203.7451">log!(context: &amp;str, level: Level, ...) : ()</text><ellipse cx="33" cy="216.6953" fill="#84BE84" rx="3" ry="3" style="stroke:#038048;stroke-width:1;"/><text fill="#000000" font-family="sans-serif" font-size="14" lengthAdjust="spacing" textLength="324.9395" x="42" y="220.042">log_enabled!(context: &amp;str, level: Level) : bool</text><ellipse cx="33" cy="232.9922" fill="#84BE84" rx="3" ry="3" style="stroke:#038048;stroke-width:1;"/><text fill="#000000" font-family="sans-serif" font-size="14" lengthAdjust="spacing" textLength="85.8936" x="42" y="236.3389">fatal!(...) : ()</text><ellipse cx="33" cy="249.2891" fill="#84BE84" rx="3" ry="3" style="stroke:#038048;stroke-width:1;"/><text fill="#000000" font-family="sans-serif" font-size="14" lengthAdjust="spacing" textLength="88.874" x="42" y="252.6357">error!(...) : ()</text><ellipse cx="33" cy="265.5859" fill="#84BE84" rx="3" ry="3" style="stroke:#038048;stroke-width:1;"/><text fill="#000000" font-family="sans-serif" font-size="14" lengthAdjust="spacing" textLength="89.0859" x="42" y="268.9326">warn!(...) : ()</text><ellipse cx="33" cy="281.8828" fill="#84BE84" rx="3" ry="3" style="stroke:#038048;stroke-width:1;"/><text fill="#000000" font-family="sans-serif" font-size="14" lengthAdjust="spacing" textLength="80.6846" x="42" y="285.2295">info!(...) : ()</text><ellipse cx="33" cy="298.1797" fill="#84BE84" rx="3" ry="3" style="stroke:#038048;stroke-width:1;"/><text fill="#000000" font-family="sans-serif" font-size="14" lengthAdjust="spacing" textLength="98.5742" x="42" y="301.5264">debug!(...) : ()</text><ellipse cx="33" cy="314.4766" fill="#84BE84" rx="3" ry="3" style="stroke:#038048;stroke-width:1;"/><text fill="#000000" font-family="sans-serif" font-size="14" lengthAdjust="spacing" textLength="90.5625" x="42" y="317.8232">trace!(...) : ()</text></g><!--class mw_log_fmt_macro--><g id="elem_mw_log_fmt_macro"><rect codeLine="38" fill="#F1F1F1" height="72.5625" id="mw_log_fmt_macro" rx="2.5" ry="2.5" style="stroke:#181818;stroke-width:0.5;" width="497.8984" x="378" y="433.5"/><ellipse cx="554.8389" cy="453.6328" fill="#ADD1B2" rx="11" ry="11" style="stroke:#181818;stroke-width:1;"/><path d="M557.8076,459.2734 Q557.2295,459.5703 556.5889,459.7109 Q555.9482,459.8672 555.2451,459.8672 Q552.7451,459.8672 551.417,458.2266 Q550.1045,456.5703 550.1045,453.4453 Q550.1045,450.3203 551.417,448.6641 Q552.7451,447.0078 555.2451,447.0078 Q555.9482,447.0078 556.5889,447.1641 Q557.2451,447.3203 557.8076,447.6172 L557.8076,450.3359 Q557.1826,449.7578 556.5889,449.4922 Q555.9951,449.2109 555.3701,449.2109 Q554.0264,449.2109 553.3389,450.2891 Q552.6514,451.3516 552.6514,453.4453 Q552.6514,455.5391 553.3389,456.6172 Q554.0264,457.6797 555.3701,457.6797 Q555.9951,457.6797 556.5889,457.4141 Q557.1826,457.1328 557.8076,456.5547 L557.8076,459.2734 Z " fill="#000000"/><text fill="#000000" font-family="sans-serif" font-size="12" font-style="italic" lengthAdjust="spacing" textLength="59.7832" x="613.3076" y="449.6387">&#171;module&#187;</text><text fill="#000000" font-family="sans-serif" font-size="14" lengthAdjust="spacing" textLength="135.7207" x="575.3389" y="465.4639">mw_log_fmt_macro</text><line style="stroke:#181818;stroke-width:0.5;" x1="379" x2="874.8984" y1="473.7656" y2="473.7656"/><line style="stroke:#181818;stroke-width:0.5;" x1="379" x2="874.8984" y1="481.7656" y2="481.7656"/><ellipse cx="389" cy="495.4141" fill="#84BE84" rx="3" ry="3" style="stroke:#038048;stroke-width:1;"/><text fill="#000000" font-family="sans-serif" font-size="14" lengthAdjust="spacing" textLength="471.8984" x="398" y="498.7607">mw_log_format_args!(format_string: &amp;str, args...) : Arguments&lt;'_&gt;</text></g><!--class ScoreDebug--><g id="elem_ScoreDebug"><rect codeLine="43" fill="#F1F1F1" height="72.5625" id="ScoreDebug" rx="2.5" ry="2.5" style="stroke:#181818;stroke-width:0.5;" width="473.7334" x="1149" y="154.5"/><ellipse cx="1333.3374" cy="174.6328" fill="#B4A7E5" rx="11" ry="11" style="stroke:#181818;stroke-width:1;"/><path d="M1329.2593,170.3984 L1329.2593,168.2422 L1336.6499,168.2422 L1336.6499,170.3984 L1334.1812,170.3984 L1334.1812,178.4766 L1336.6499,178.4766 L1336.6499,180.6328 L1329.2593,180.6328 L1329.2593,178.4766 L1331.728,178.4766 L1331.728,170.3984 L1329.2593,170.3984 Z " fill="#000000"/><text fill="#000000" font-family="sans-serif" font-size="12" font-style="italic" lengthAdjust="spacing" textLength="39.8438" x="1382.1948" y="170.6387">&#171;trait&#187;</text><ellipse cx="1358.8374" cy="181.1172" fill="#84BE84" rx="3" ry="3" style="stroke:#038048;stroke-width:1;"/><text fill="#000000" font-family="sans-serif" font-size="14" font-style="italic" lengthAdjust="spacing" textLength="85.5586" x="1364.8374" y="186.4639">ScoreDebug</text><line style="stroke:#181818;stroke-width:0.5;" x1="1150" x2="1621.7334" y1="194.7656" y2="194.7656"/><line style="stroke:#181818;stroke-width:0.5;" x1="1150" x2="1621.7334" y1="202.7656" y2="202.7656"/><ellipse cx="1160" cy="216.4141" fill="#84BE84" rx="3" ry="3" style="stroke:#038048;stroke-width:1;"/><text fill="#000000" font-family="sans-serif" font-size="14" lengthAdjust="spacing" textLength="447.7334" x="1169" y="219.7607">fmt(&amp;self, f: &amp;mut dyn ScoreWrite, spec: &amp;FormatSpec) : Result</text></g><!--class mw_log_fmt--><g id="elem_mw_log_fmt"><rect codeLine="47" fill="#F1F1F1" height="105.1563" id="mw_log_fmt" rx="2.5" ry="2.5" style="stroke:#181818;stroke-width:0.5;" width="495.834" x="618" y="138.5"/><ellipse cx="819.4243" cy="158.6328" fill="#ADD1B2" rx="11" ry="11" style="stroke:#181818;stroke-width:1;"/><path d="M822.3931,164.2734 Q821.8149,164.5703 821.1743,164.7109 Q820.5337,164.8672 819.8306,164.8672 Q817.3306,164.8672 816.0024,163.2266 Q814.6899,161.5703 814.6899,158.4453 Q814.6899,155.3203 816.0024,153.6641 Q817.3306,152.0078 819.8306,152.0078 Q820.5337,152.0078 821.1743,152.1641 Q821.8306,152.3203 822.3931,152.6172 L822.3931,155.3359 Q821.7681,154.7578 821.1743,154.4922 Q820.5806,154.2109 819.9556,154.2109 Q818.6118,154.2109 817.9243,155.2891 Q817.2368,156.3516 817.2368,158.4453 Q817.2368,160.5391 817.9243,161.6172 Q818.6118,162.6797 819.9556,162.6797 Q820.5806,162.6797 821.1743,162.4141 Q821.7681,162.1328 822.3931,161.5547 L822.3931,164.2734 Z " fill="#000000"/><text fill="#000000" font-family="sans-serif" font-size="12" font-style="italic" lengthAdjust="spacing" textLength="59.7832" x="852.2754" y="154.6387">&#171;module&#187;</text><text fill="#000000" font-family="sans-serif" font-size="14" lengthAdjust="spacing" textLength="84.4854" x="839.9243" y="170.4639">mw_log_fmt</text><line style="stroke:#181818;stroke-width:0.5;" x1="619" x2="1112.834" y1="178.7656" y2="178.7656"/><line style="stroke:#181818;stroke-width:0.5;" x1="619" x2="1112.834" y1="186.7656" y2="186.7656"/><ellipse cx="629" cy="200.4141" fill="#84BE84" rx="3" ry="3" style="stroke:#038048;stroke-width:1;"/><text fill="#000000" font-family="sans-serif" font-size="14" lengthAdjust="spacing" textLength="469.834" x="638" y="203.7607">write(output: &amp;mut dyn ScoreWrite, args: Arguments&lt;'_&gt;) : Result</text><text fill="#000000" font-family="sans-serif" font-size="14" lengthAdjust="spacing" textLength="4.4502" x="638" y="220.0576">&#160;</text><ellipse cx="629" cy="233.0078" fill="#84BE84" rx="3" ry="3" style="stroke:#038048;stroke-width:1;"/><text fill="#000000" font-family="sans-serif" font-size="14" lengthAdjust="spacing" textLength="339.6982" x="638" y="236.3545">score_write!(format_string: &amp;str, args...) : Result</text></g><!--link mw_log to Level--><g id="link_mw_log_Level"><path codeLine="54" d="M221.03,325.23 C209.92,348.37 198.71,371.71 188.65,392.66 " fill="transparent" id="mw_log-Level" style="stroke:#181818;stroke-width:1;"/></g><!--link mw_log to LevelFilter--><g id="link_mw_log_LevelFilter"><path codeLine="55" d="M285,325.23 C285,345.46 285,365.85 285,384.65 " fill="transparent" id="mw_log-LevelFilter" style="stroke:#181818;stroke-width:1;"/></g><!--link mw_log to mw_log_fmt_macro--><g id="link_mw_log_mw_log_fmt_macro"><path codeLine="56" d="M449.24,325.02 C498.57,364.98 548.64,405.54 583.02,433.38 " fill="transparent" id="mw_log-mw_log_fmt_macro" style="stroke:#181818;stroke-width:1;"/></g><!--link mw_log to mw_log_fmt--><g id="link_mw_log_mw_log_fmt"><path codeLine="57" d="M548.08,191 C553.81,191 559.54,191 565.2688,191 C568.1331,191 570.9972,191 573.8608,191 C574.2187,191 574.5767,191 574.9346,191 " fill="transparent" id="mw_log-mw_log_fmt" style="stroke:#181818;stroke-width:1;"/></g><!--SRC=[jLDDYzim4BtxLoYNNOTuymE2CRIqWKAWq1JsQ1Hbh9hgmqZZRah9VwyaUstPrRQd-c0pVczcdjwCEig-Kmv4Q4xAacdPQGKAguhyoeXxTg1wIKxm0uJ3VJ11_ZbIf6AAFXgZpHGzKwEcu9Dgz1HyW4lFf-YheGn2TC_MFO-jG32fpf-Rvl-gO89QI-HBFLWZzRKNi92miu0r5_f2XITnCFdmEP3t-bPUVofoqhpQaWFv0hONMERRWfm1Ju4LT5RBQfBUQk4FdeVt8NR1ryctCt_cUYGYpfIbE4zxUBH8iMLaL9VDPCVQv4mhX1iweaLJa5X5GVRx_Lg4Iwf1qOk0wr-JVTv5wtbAkyOFRPCdQe8t9ecyk64cWTODDWbS_P2J2Fg1hv74xEj6-hamez_OWbUQDf9YJGstctmCd0sjugz-U6XizyxmNhfxPil7keexT-Dzd7l7hLhdhscSRd9csa3OOAVA7QN5XQZ1OOdvWmNH5AHn6cIFOUeXzTcq20Mn7J077OFSimlcPPrgtUSTMVkITcGObM-Gwnwx7jzexlrOMH6rNvQpFgyEHV_jxXy7Y8unNkYdfs4lK_-YMpGZwsLOmARbtp3cPFViDm00]--></g></svg>