<svg xmlns="http://www.w3.org/2000/svg" xmlns:xlink="http://www.w3.org/1999/xlink" contentStyleType="text/css" data-diagram-type="DESCRIPTION" height="353px" preserveAspectRatio="none" style="width:549px;height:353px;background:#FFFFFF;" version="1.1" viewBox="0 0 549 353" width="549px" zoomAndPan="magnify"><defs/><g><!--cluster log--><g id="cluster_log"><path d="M8.5,6 L33.9385,6 A3.75,3.75 0 0 1 36.4385,8.5 L43.4385,28.2969 L340.5,28.2969 A2.5,2.5 0 0 1 343,30.7969 L343,265 A2.5,2.5 0 0 1 340.5,267.5 L8.5,267.5 A2.5,2.5 0 0 1 6,265 L6,8.5 A2.5,2.5 0 0 1 8.5,6 " fill="transparent" style="stroke:#000000;stroke-width:1.5;"/><line style="stroke:#000000;stroke-width:1.5;" x1="6" x2="43.4385" y1="28.2969" y2="28.2969"/><text fill="#000000" font-family="sans-serif" font-size="14" font-weight="bold" lengthAdjust="spacing" textLength="24.4385" x="10" y="20.9951">log</text><text fill="#000000" font-family="sans-serif" font-size="14" font-style="italic" lengthAdjust="spacing" textLength="96.4824" x="130.2588" y="43.292">&#171;component&#187;</text></g><!--entity mw_log--><g id="elem_mw_log"><rect fill="#F1F1F1" height="62.5938" rx="2.5" ry="2.5" style="stroke:#181818;stroke-width:0.5;" width="121.7207" x="193" y="57"/><rect fill="#F1F1F1" height="10" style="stroke:#181818;stroke-width:0.5;" width="15" x="294.7207" y="62"/><rect fill="#F1F1F1" height="2" style="stroke:#181818;stroke-width:0.5;" width="4" x="292.7207" y="64"/><rect fill="#F1F1F1" height="2" style="stroke:#181818;stroke-width:0.5;" width="4" x="292.7207" y="68"/><text fill="#000000" font-family="sans-serif" font-size="14" font-style="italic" lengthAdjust="spacing" textLength="79.7207" x="209" y="89.9951">&#171;interface&#187;</text><text fill="#000000" font-family="sans-serif" font-size="14" lengthAdjust="spacing" textLength="53.4297" x="222.1455" y="106.292">mw_log</text></g><!--entity mw_log_fmt--><g id="elem_mw_log_fmt"><rect fill="#F1F1F1" height="46.2969" rx="2.5" ry="2.5" style="stroke:#181818;stroke-width:0.5;" width="124.4854" x="22" y="205.5"/><rect fill="#F1F1F1" height="10" style="stroke:#181818;stroke-width:0.5;" width="15" x="126.4854" y="210.5"/><rect fill="#F1F1F1" height="2" style="stroke:#181818;stroke-width:0.5;" width="4" x="124.4854" y="212.5"/><rect fill="#F1F1F1" height="2" style="stroke:#181818;stroke-width:0.5;" width="4" x="124.4854" y="216.5"/><text fill="#000000" font-family="sans-serif" font-size="14" lengthAdjust="spacing" textLength="84.4854" x="37" y="238.4951">mw_log_fmt</text></g><!--entity mw_log_macro--><g id="elem_mw_log_macro"><rect fill="#F1F1F1" height="46.2969" rx="2.5" ry="2.5" style="stroke:#181818;stroke-width:0.5;" width="144.665" x="181.5" y="205.5"/><rect fill="#F1F1F1" height="10" style="stroke:#181818;stroke-width:0.5;" width="15" x="306.165" y="210.5"/><rect fill="#F1F1F1" height="2" style="stroke:#181818;stroke-width:0.5;" width="4" x="304.165" y="212.5"/><rect fill="#F1F1F1" height="2" style="stroke:#181818;stroke-width:0.5;" width="4" x="304.165" y="216.5"/><text fill="#000000" font-family="sans-serif" font-size="14" lengthAdjust="spacing" textLength="104.665" x="196.5" y="238.4951">mw_log_macro</text></g><!--entity mw_log_subscriber--><g id="elem_mw_log_subscriber"><rect fill="#F1F1F1" height="62.5938" rx="2.5" ry="2.5" style="stroke:#181818;stroke-width:0.5;" width="173.376" x="361.5" y="197"/><rect fill="#F1F1F1" height="10" style="stroke:#181818;stroke-width:0.5;" width="15" x="514.876" y="202"/><rect fill="#F1F1F1" height="2" style="stroke:#181818;stroke-width:0.5;" width="4" x="512.876" y="204"/><rect fill="#F1F1F1" height="2" style="stroke:#181818;stroke-width:0.5;" width="4" x="512.876" y="208"/><text fill="#000000" font-family="sans-serif" font-size="14" font-style="italic" lengthAdjust="spacing" textLength="96.4824" x="394.9468" y="229.9951">&#171;component&#187;</text><text fill="#000000" font-family="sans-serif" font-size="14" lengthAdjust="spacing" textLength="133.376" x="376.5" y="246.292">mw_log_subscriber</text></g><g id="elem_GMN9"><path d="M354,321 L354,346.1328 A0,0 0 0 0 354,346.1328 L542.3179,346.1328 A0,0 0 0 0 542.3179,346.1328 L542.3179,331 L532.3179,321 L452,321 L448,260.12 L444,321 L354,321 A0,0 0 0 0 354,321 " fill="#FEFFDD" style="stroke:#181818;stroke-width:0.5;"/><path d="M532.3179,321 L532.3179,331 L542.3179,331 L532.3179,321 " fill="#FEFFDD" style="stroke:#181818;stroke-width:0.5;"/><text fill="#000000" font-family="sans-serif" font-size="13" lengthAdjust="spacing" textLength="167.3179" x="360" y="338.0669">Backend implementation.</text></g><!--link mw_log to mw_log_fmt--><g id="link_mw_log_mw_log_fmt"><path d="M216.27,120.13 C184.48,145.93 144.4082,178.4584 115.9782,201.5384 " fill="transparent" id="mw_log-to-mw_log_fmt" style="stroke:#181818;stroke-width:1;stroke-dasharray:7.0,7.0;"/><polygon fill="#181818" points="111.32,205.32,120.8285,202.753,115.2019,202.1686,115.7863,196.542,111.32,205.32" style="stroke:#181818;stroke-width:1;"/><text fill="#000000" font-family="sans-serif" font-size="13" lengthAdjust="spacing" textLength="23.0103" x="181" y="163.0669">use</text></g><!--link mw_log to mw_log_macro--><g id="link_mw_log_mw_log_macro"><path d="M254,120.13 C254,145.85 254,176.02 254,199.11 " fill="transparent" id="mw_log-to-mw_log_macro" style="stroke:#181818;stroke-width:1;stroke-dasharray:7.0,7.0;"/><polygon fill="#181818" points="254,205.11,258,196.11,254,200.11,250,196.11,254,205.11" style="stroke:#181818;stroke-width:1;"/><text fill="#000000" font-family="sans-serif" font-size="13" lengthAdjust="spacing" textLength="23.0103" x="255" y="163.0669">use</text></g><!--link mw_log to mw_log_subscriber--><g id="link_mw_log_mw_log_subscriber"><path d="M297.05,120.13 C329.2,143 368.0609,170.6319 400.1809,193.4819 " fill="transparent" id="mw_log-to-mw_log_subscriber" style="stroke:#181818;stroke-width:1;"/><polygon fill="#181818" points="405.07,196.96,400.0551,188.4835,400.9958,194.0616,395.4177,195.0023,405.07,196.96" style="stroke:#181818;stroke-width:1;"/><text fill="#000000" font-family="sans-serif" font-size="13" lengthAdjust="spacing" textLength="76.9082" x="363" y="163.0669">implements</text></g><!--SRC=[TOz13eCm30JlVeMLEtb0XNBeHr183OgAOvG4zL3rxmqq0gajFkxEhktPkhiT2TKaeyAsTSAp10hP67m2bjaLLFpeAkP3fZXOHyR0VweREAipZwsBKjsFX5eRF99umINHYR-bA_42-ArFIvzSz3t5hvSWI2Ri9MVXhVnQtgTmGy_pH5mOcxq43QksiW1rVTFiwu_sSiCUJF06]--></g></svg>