<svg xmlns="http://www.w3.org/2000/svg" xmlns:xlink="http://www.w3.org/1999/xlink" contentStyleType="text/css" data-diagram-type="DESCRIPTION" height="353px" preserveAspectRatio="none" style="width:580px;height:353px;background:#FFFFFF;" version="1.1" viewBox="0 0 580 353" width="580px" zoomAndPan="magnify"><defs/><g><!--cluster log--><g id="cluster_log"><path d="M8.5,6 L33.9385,6 A3.75,3.75 0 0 1 36.4385,8.5 L43.4385,28.2969 L370.5,28.2969 A2.5,2.5 0 0 1 373,30.7969 L373,265 A2.5,2.5 0 0 1 370.5,267.5 L8.5,267.5 A2.5,2.5 0 0 1 6,265 L6,8.5 A2.5,2.5 0 0 1 8.5,6 " fill="transparent" style="stroke:#000000;stroke-width:1.5;"/><line style="stroke:#000000;stroke-width:1.5;" x1="6" x2="43.4385" y1="28.2969" y2="28.2969"/><text fill="#000000" font-family="sans-serif" font-size="14" font-weight="bold" lengthAdjust="spacing" textLength="24.4385" x="10" y="20.9951">log</text><text fill="#000000" font-family="sans-serif" font-size="14" font-style="italic" lengthAdjust="spacing" textLength="96.4824" x="145.2588" y="43.292">&#171;component&#187;</text></g><!--entity mw_log--><g id="elem_mw_log"><rect fill="#F1F1F1" height="62.5938" rx="2.5" ry="2.5" style="stroke:#181818;stroke-width:0.5;" width="121.7207" x="208" y="57"/><rect fill="#F1F1F1" height="10" style="stroke:#181818;stroke-width:0.5;" width="15" x="309.7207" y="62"/><rect fill="#F1F1F1" height="2" style="stroke:#181818;stroke-width:0.5;" width="4" x="307.7207" y="64"/><rect fill="#F1F1F1" height="2" style="stroke:#181818;stroke-width:0.5;" width="4" x="307.7207" y="68"/><text fill="#000000" font-family="sans-serif" font-size="14" font-style="italic" lengthAdjust="spacing" textLength="79.7207" x="224" y="89.9951">&#171;interface&#187;</text><text fill="#000000" font-family="sans-serif" font-size="14" lengthAdjust="spacing" textLength="53.4297" x="237.1455" y="106.292">mw_log</text></g><!--entity mw_log_fmt--><g id="elem_mw_log_fmt"><rect fill="#F1F1F1" height="46.2969" rx="2.5" ry="2.5" style="stroke:#181818;stroke-width:0.5;" width="124.4854" x="22" y="205.5"/><rect fill="#F1F1F1" height="10" style="stroke:#181818;stroke-width:0.5;" width="15" x="126.4854" y="210.5"/><rect fill="#F1F1F1" height="2" style="stroke:#181818;stroke-width:0.5;" width="4" x="124.4854" y="212.5"/><rect fill="#F1F1F1" height="2" style="stroke:#181818;stroke-width:0.5;" width="4" x="124.4854" y="216.5"/><text fill="#000000" font-family="sans-serif" font-size="14" lengthAdjust="spacing" textLength="84.4854" x="37" y="238.4951">mw_log_fmt</text></g><!--entity mw_log_fmt_macro--><g id="elem_mw_log_fmt_macro"><rect fill="#F1F1F1" height="46.2969" rx="2.5" ry="2.5" style="stroke:#181818;stroke-width:0.5;" width="175.7207" x="181" y="205.5"/><rect fill="#F1F1F1" height="10" style="stroke:#181818;stroke-width:0.5;" width="15" x="336.7207" y="210.5"/><rect fill="#F1F1F1" height="2" style="stroke:#181818;stroke-width:0.5;" width="4" x="334.7207" y="212.5"/><rect fill="#F1F1F1" height="2" style="stroke:#181818;stroke-width:0.5;" width="4" x="334.7207" y="216.5"/><text fill="#000000" font-family="sans-serif" font-size="14" lengthAdjust="spacing" textLength="135.7207" x="196" y="238.4951">mw_log_fmt_macro</text></g><!--entity mw_log_subscriber--><g id="elem_mw_log_subscriber"><rect fill="#F1F1F1" height="62.5938" rx="2.5" ry="2.5" style="stroke:#181818;stroke-width:0.5;" width="173.376" x="392.5" y="197"/><rect fill="#F1F1F1" height="10" style="stroke:#181818;stroke-width:0.5;" width="15" x="545.876" y="202"/><rect fill="#F1F1F1" height="2" style="stroke:#181818;stroke-width:0.5;" width="4" x="543.876" y="204"/><rect fill="#F1F1F1" height="2" style="stroke:#181818;stroke-width:0.5;" width="4" x="543.876" y="208"/><text fill="#000000" font-family="sans-serif" font-size="14" font-style="italic" lengthAdjust="spacing" textLength="96.4824" x="425.9468" y="229.9951">&#171;component&#187;</text><text fill="#000000" font-family="sans-serif" font-size="14" lengthAdjust="spacing" textLength="133.376" x="407.5" y="246.292">mw_log_subscriber</text></g><g id="elem_GMN9"><path d="M385,321 L385,346.1328 A0,0 0 0 0 385,346.1328 L573.3179,346.1328 A0,0 0 0 0 573.3179,346.1328 L573.3179,331 L563.3179,321 L483,321 L479,260.12 L475,321 L385,321 A0,0 0 0 0 385,321 " fill="#FEFFDD" style="stroke:#181818;stroke-width:0.5;"/><path d="M563.3179,321 L563.3179,331 L573.3179,331 L563.3179,321 " fill="#FEFFDD" style="stroke:#181818;stroke-width:0.5;"/><text fill="#000000" font-family="sans-serif" font-size="13" lengthAdjust="spacing" textLength="167.3179" x="391" y="338.0669">Backend implementation.</text></g><!--link mw_log to mw_log_fmt--><g id="link_mw_log_mw_log_fmt"><path d="M227.94,120.13 C193.35,145.93 149.4793,178.6524 118.5393,201.7324 " fill="transparent" id="mw_log-to-mw_log_fmt" style="stroke:#181818;stroke-width:1;stroke-dasharray:7.0,7.0;"/><polygon fill="#181818" points="113.73,205.32,123.3357,203.1449,117.7378,202.3304,118.5523,196.7325,113.73,205.32" style="stroke:#181818;stroke-width:1;"/><text fill="#000000" font-family="sans-serif" font-size="13" lengthAdjust="spacing" textLength="23.0103" x="188" y="163.0669">use</text></g><!--link mw_log to mw_log_fmt_macro--><g id="link_mw_log_mw_log_fmt_macro"><path d="M269,120.13 C269,145.85 269,176.02 269,199.11 " fill="transparent" id="mw_log-to-mw_log_fmt_macro" style="stroke:#181818;stroke-width:1;stroke-dasharray:7.0,7.0;"/><polygon fill="#181818" points="269,205.11,273,196.11,269,200.11,265,196.11,269,205.11" style="stroke:#181818;stroke-width:1;"/><text fill="#000000" font-family="sans-serif" font-size="13" lengthAdjust="spacing" textLength="23.0103" x="270" y="163.0669">use</text></g><!--link mw_log to mw_log_subscriber--><g id="link_mw_log_mw_log_subscriber"><path d="M315.61,120.13 C350.41,143 392.7463,170.8142 427.5063,193.6642 " fill="transparent" id="mw_log-to-mw_log_subscriber" style="stroke:#181818;stroke-width:1;"/><polygon fill="#181818" points="432.52,196.96,427.1966,188.6738,428.3419,194.2135,422.8022,195.3587,432.52,196.96" style="stroke:#181818;stroke-width:1;"/><text fill="#000000" font-family="sans-serif" font-size="13" lengthAdjust="spacing" textLength="76.9082" x="387" y="163.0669">implements</text></g><!--SRC=[VP1B3eCm34JtFeMLFHoWGbdq8YYa1aN5CKg2kgXwzuOI1Qa_ByVFux4NOwzc8bIpJ0gxpWeluiadhV4EcAiggFZM5ypvH64qbhI6xrG_Sb9_UZqR6wGGkunjg_4Wy8HhfD_ztQ5G3u3FDN4TeWrkeF1s6dX9X8Ea9FnQSCvl87z1nyjCd1cJdFWMDcrZ0Kg4fgaH3lUSeGv6U080]--></g></svg>