<svg xmlns="http://www.w3.org/2000/svg" xmlns:xlink="http://www.w3.org/1999/xlink" contentStyleType="text/css" data-diagram-type="CLASS" height="815px" preserveAspectRatio="none" style="width:1421px;height:815px;background:#FFFFFF;" version="1.1" viewBox="0 0 1421 815" width="1421px" zoomAndPan="magnify"><defs/><g><!--cluster log--><g id="cluster_log"><path d="M8.5,6 L33.9385,6 A3.75,3.75 0 0 1 36.4385,8.5 L43.4385,28.2969 L1411.5,28.2969 A2.5,2.5 0 0 1 1414,30.7969 L1414,805.5 A2.5,2.5 0 0 1 1411.5,808 L8.5,808 A2.5,2.5 0 0 1 6,805.5 L6,8.5 A2.5,2.5 0 0 1 8.5,6 " fill="transparent" style="stroke:#000000;stroke-width:1.5;"/><line style="stroke:#000000;stroke-width:1.5;" x1="6" x2="43.4385" y1="28.2969" y2="28.2969"/><text fill="#000000" font-family="sans-serif" font-size="14" font-weight="bold" lengthAdjust="spacing" textLength="24.4385" x="10" y="20.9951">log</text><text fill="#000000" font-family="sans-serif" font-size="14" font-style="italic" lengthAdjust="spacing" textLength="96.4824" x="665.7588" y="43.292">&#171;component&#187;</text></g><!--cluster mw_log_fmt--><g id="cluster_mw_log_fmt"><path d="M832.5,119.5 L926.8311,119.5 A3.75,3.75 0 0 1 929.3311,122 L936.3311,141.7969 L1379.5,141.7969 A2.5,2.5 0 0 1 1382,144.2969 L1382,773.5 A2.5,2.5 0 0 1 1379.5,776 L832.5,776 A2.5,2.5 0 0 1 830,773.5 L830,122 A2.5,2.5 0 0 1 832.5,119.5 " fill="transparent" style="stroke:#000000;stroke-width:1.5;"/><line style="stroke:#000000;stroke-width:1.5;" x1="830" x2="936.3311" y1="141.7969" y2="141.7969"/><text fill="#000000" font-family="sans-serif" font-size="14" font-weight="bold" lengthAdjust="spacing" textLength="93.3311" x="834" y="134.4951">mw_log_fmt</text></g><!--class Level--><g id="elem_Level"><rect codeLine="3" fill="#F1F1F1" height="154.0469" id="Level" rx="2.5" ry="2.5" style="stroke:#181818;stroke-width:0.5;" width="80.2012" x="22" y="409"/><ellipse cx="37" cy="429.1328" fill="#EB937F" rx="11" ry="11" style="stroke:#181818;stroke-width:1;"/><path d="M41.1094,435.1328 L33.3906,435.1328 L33.3906,422.7422 L41.1094,422.7422 L41.1094,424.8984 L35.8438,424.8984 L35.8438,427.5703 L40.6094,427.5703 L40.6094,429.7266 L35.8438,429.7266 L35.8438,432.9766 L41.1094,432.9766 L41.1094,435.1328 Z " fill="#000000"/><text fill="#000000" font-family="sans-serif" font-size="12" font-style="italic" lengthAdjust="spacing" textLength="49.0957" x="50.5527" y="425.1387">&#171;enum&#187;</text><ellipse cx="56" cy="435.6172" fill="#84BE84" rx="3" ry="3" style="stroke:#038048;stroke-width:1;"/><text fill="#000000" font-family="sans-serif" font-size="14" lengthAdjust="spacing" textLength="37.2012" x="62" y="440.9639">Level</text><line style="stroke:#181818;stroke-width:0.5;" x1="23" x2="101.2012" y1="449.2656" y2="449.2656"/><text fill="#000000" font-family="sans-serif" font-size="14" lengthAdjust="spacing" textLength="34.5898" x="28" y="466.2607">Fatal</text><text fill="#000000" font-family="sans-serif" font-size="14" lengthAdjust="spacing" textLength="34.6787" x="28" y="482.5576">Error</text><text fill="#000000" font-family="sans-serif" font-size="14" lengthAdjust="spacing" textLength="37.0508" x="28" y="498.8545">Warn</text><text fill="#000000" font-family="sans-serif" font-size="14" lengthAdjust="spacing" textLength="26.4961" x="28" y="515.1514">Info</text><text fill="#000000" font-family="sans-serif" font-size="14" lengthAdjust="spacing" textLength="46.04" x="28" y="531.4482">Debug</text><text fill="#000000" font-family="sans-serif" font-size="14" lengthAdjust="spacing" textLength="39.1973" x="28" y="547.7451">Trace</text><line style="stroke:#181818;stroke-width:0.5;" x1="23" x2="101.2012" y1="555.0469" y2="555.0469"/></g><!--class LevelFilter--><g id="elem_LevelFilter"><rect codeLine="12" fill="#F1F1F1" height="170.3438" id="LevelFilter" rx="2.5" ry="2.5" style="stroke:#181818;stroke-width:0.5;" width="115.8916" x="137" y="401"/><ellipse cx="152" cy="421.1328" fill="#EB937F" rx="11" ry="11" style="stroke:#181818;stroke-width:1;"/><path d="M156.1094,427.1328 L148.3906,427.1328 L148.3906,414.7422 L156.1094,414.7422 L156.1094,416.8984 L150.8438,416.8984 L150.8438,419.5703 L155.6094,419.5703 L155.6094,421.7266 L150.8438,421.7266 L150.8438,424.9766 L156.1094,424.9766 L156.1094,427.1328 Z " fill="#000000"/><text fill="#000000" font-family="sans-serif" font-size="12" font-style="italic" lengthAdjust="spacing" textLength="49.0957" x="183.3979" y="417.1387">&#171;enum&#187;</text><ellipse cx="171" cy="427.6172" fill="#84BE84" rx="3" ry="3" style="stroke:#038048;stroke-width:1;"/><text fill="#000000" font-family="sans-serif" font-size="14" lengthAdjust="spacing" textLength="72.8916" x="177" y="432.9639">LevelFilter</text><line style="stroke:#181818;stroke-width:0.5;" x1="138" x2="251.8916" y1="441.2656" y2="441.2656"/><text fill="#000000" font-family="sans-serif" font-size="14" lengthAdjust="spacing" textLength="20.877" x="143" y="458.2607">Off</text><text fill="#000000" font-family="sans-serif" font-size="14" lengthAdjust="spacing" textLength="34.5898" x="143" y="474.5576">Fatal</text><text fill="#000000" font-family="sans-serif" font-size="14" lengthAdjust="spacing" textLength="34.6787" x="143" y="490.8545">Error</text><text fill="#000000" font-family="sans-serif" font-size="14" lengthAdjust="spacing" textLength="37.0508" x="143" y="507.1514">Warn</text><text fill="#000000" font-family="sans-serif" font-size="14" lengthAdjust="spacing" textLength="26.4961" x="143" y="523.4482">Info</text><text fill="#000000" font-family="sans-serif" font-size="14" lengthAdjust="spacing" textLength="46.04" x="143" y="539.7451">Debug</text><text fill="#000000" font-family="sans-serif" font-size="14" lengthAdjust="spacing" textLength="39.1973" x="143" y="556.042">Trace</text><line style="stroke:#181818;stroke-width:0.5;" x1="138" x2="251.8916" y1="563.3438" y2="563.3438"/></g><!--class mw_log--><g id="elem_mw_log"><rect codeLine="22" fill="#F1F1F1" height="284.4219" id="mw_log" rx="2.5" ry="2.5" style="stroke:#181818;stroke-width:0.5;" width="526.5479" x="148.5" y="57"/><ellipse cx="379.6323" cy="77.1328" fill="#ADD1B2" rx="11" ry="11" style="stroke:#181818;stroke-width:1;"/><path d="M382.6011,82.7734 Q382.0229,83.0703 381.3823,83.2109 Q380.7417,83.3672 380.0386,83.3672 Q377.5386,83.3672 376.2104,81.7266 Q374.8979,80.0703 374.8979,76.9453 Q374.8979,73.8203 376.2104,72.1641 Q377.5386,70.5078 380.0386,70.5078 Q380.7417,70.5078 381.3823,70.6641 Q382.0386,70.8203 382.6011,71.1172 L382.6011,73.8359 Q381.9761,73.2578 381.3823,72.9922 Q380.7886,72.7109 380.1636,72.7109 Q378.8198,72.7109 378.1323,73.7891 Q377.4448,74.8516 377.4448,76.9453 Q377.4448,79.0391 378.1323,80.1172 Q378.8198,81.1797 380.1636,81.1797 Q380.7886,81.1797 381.3823,80.9141 Q381.9761,80.6328 382.6011,80.0547 L382.6011,82.7734 Z " fill="#000000"/><text fill="#000000" font-family="sans-serif" font-size="12" font-style="italic" lengthAdjust="spacing" textLength="59.7832" x="398.1323" y="73.1387">&#171;module&#187;</text><text fill="#000000" font-family="sans-serif" font-size="14" lengthAdjust="spacing" textLength="53.4297" x="401.3091" y="88.9639">mw_log</text><line style="stroke:#181818;stroke-width:0.5;" x1="149.5" x2="674.0479" y1="97.2656" y2="97.2656"/><line style="stroke:#181818;stroke-width:0.5;" x1="149.5" x2="674.0479" y1="105.2656" y2="105.2656"/><ellipse cx="159.5" cy="118.9141" fill="#84BE84" rx="3" ry="3" style="stroke:#038048;stroke-width:1;"/><text fill="#000000" font-family="sans-serif" font-size="14" lengthAdjust="spacing" textLength="458.0488" x="168.5" y="122.2607">set_logger(logger: &amp;'static dyn Log) : Result&lt;(), SetLoggerError&gt;</text><ellipse cx="159.5" cy="135.2109" fill="#84BE84" rx="3" ry="3" style="stroke:#038048;stroke-width:1;"/><text fill="#000000" font-family="sans-serif" font-size="14" lengthAdjust="spacing" textLength="500.5479" x="168.5" y="138.5576">set_boxed_logger(logger: Box&lt;dyn Log&gt;) : Result&lt;(), SetLoggerError&gt;</text><ellipse cx="159.5" cy="151.5078" fill="#84BE84" rx="3" ry="3" style="stroke:#038048;stroke-width:1;"/><text fill="#000000" font-family="sans-serif" font-size="14" lengthAdjust="spacing" textLength="250.0039" x="168.5" y="154.8545">set_max_level(level: LevelFilter) : ()</text><ellipse cx="159.5" cy="167.8047" fill="#84BE84" rx="3" ry="3" style="stroke:#038048;stroke-width:1;"/><text fill="#000000" font-family="sans-serif" font-size="14" lengthAdjust="spacing" textLength="168.2256" x="168.5" y="171.1514">max_level() : LevelFilter</text><ellipse cx="159.5" cy="184.1016" fill="#84BE84" rx="3" ry="3" style="stroke:#038048;stroke-width:1;"/><text fill="#000000" font-family="sans-serif" font-size="14" lengthAdjust="spacing" textLength="182.54" x="168.5" y="187.4482">logger() : &amp;'static dyn Log</text><text fill="#000000" font-family="sans-serif" font-size="14" lengthAdjust="spacing" textLength="4.4502" x="168.5" y="203.7451">&#160;</text><ellipse cx="159.5" cy="216.6953" fill="#84BE84" rx="3" ry="3" style="stroke:#038048;stroke-width:1;"/><text fill="#000000" font-family="sans-serif" font-size="14" lengthAdjust="spacing" textLength="264.8652" x="168.5" y="220.042">log!(context: &amp;str, level: Level, ...) : ()</text><ellipse cx="159.5" cy="232.9922" fill="#84BE84" rx="3" ry="3" style="stroke:#038048;stroke-width:1;"/><text fill="#000000" font-family="sans-serif" font-size="14" lengthAdjust="spacing" textLength="324.9395" x="168.5" y="236.3389">log_enabled!(context: &amp;str, level: Level) : bool</text><ellipse cx="159.5" cy="249.2891" fill="#84BE84" rx="3" ry="3" style="stroke:#038048;stroke-width:1;"/><text fill="#000000" font-family="sans-serif" font-size="14" lengthAdjust="spacing" textLength="85.8936" x="168.5" y="252.6357">fatal!(...) : ()</text><ellipse cx="159.5" cy="265.5859" fill="#84BE84" rx="3" ry="3" style="stroke:#038048;stroke-width:1;"/><text fill="#000000" font-family="sans-serif" font-size="14" lengthAdjust="spacing" textLength="88.874" x="168.5" y="268.9326">error!(...) : ()</text><ellipse cx="159.5" cy="281.8828" fill="#84BE84" rx="3" ry="3" style="stroke:#038048;stroke-width:1;"/><text fill="#000000" font-family="sans-serif" font-size="14" lengthAdjust="spacing" textLength="89.0859" x="168.5" y="285.2295">warn!(...) : ()</text><ellipse cx="159.5" cy="298.1797" fill="#84BE84" rx="3" ry="3" style="stroke:#038048;stroke-width:1;"/><text fill="#000000" font-family="sans-serif" font-size="14" lengthAdjust="spacing" textLength="80.6846" x="168.5" y="301.5264">info!(...) : ()</text><ellipse cx="159.5" cy="314.4766" fill="#84BE84" rx="3" ry="3" style="stroke:#038048;stroke-width:1;"/><text fill="#000000" font-family="sans-serif" font-size="14" lengthAdjust="spacing" textLength="98.5742" x="168.5" y="317.8232">debug!(...) : ()</text><ellipse cx="159.5" cy="330.7734" fill="#84BE84" rx="3" ry="3" style="stroke:#038048;stroke-width:1;"/><text fill="#000000" font-family="sans-serif" font-size="14" lengthAdjust="spacing" textLength="90.5625" x="168.5" y="334.1201">trace!(...) : ()</text></g><!--class mw_log_macro--><g id="elem_mw_log_macro"><rect codeLine="39" fill="#F1F1F1" height="88.8594" id="mw_log_macro" rx="2.5" ry="2.5" style="stroke:#181818;stroke-width:0.5;" width="517.6611" x="288" y="441.5"/><ellipse cx="490.248" cy="461.6328" fill="#ADD1B2" rx="11" ry="11" style="stroke:#181818;stroke-width:1;"/><path d="M493.2168,467.2734 Q492.6387,467.5703 491.998,467.7109 Q491.3574,467.8672 490.6543,467.8672 Q488.1543,467.8672 486.8262,466.2266 Q485.5137,464.5703 485.5137,461.4453 Q485.5137,458.3203 486.8262,456.6641 Q488.1543,455.0078 490.6543,455.0078 Q491.3574,455.0078 491.998,455.1641 Q492.6543,455.3203 493.2168,455.6172 L493.2168,458.3359 Q492.5918,457.7578 491.998,457.4922 Q491.4043,457.2109 490.7793,457.2109 Q489.4355,457.2109 488.748,458.2891 Q488.0605,459.3516 488.0605,461.4453 Q488.0605,463.5391 488.748,464.6172 Q489.4355,465.6797 490.7793,465.6797 Q491.4043,465.6797 491.998,465.4141 Q492.5918,465.1328 493.2168,464.5547 L493.2168,467.2734 Z " fill="#000000"/><text fill="#000000" font-family="sans-serif" font-size="12" font-style="italic" lengthAdjust="spacing" textLength="59.7832" x="533.189" y="457.6387">&#171;module&#187;</text><text fill="#000000" font-family="sans-serif" font-size="14" lengthAdjust="spacing" textLength="104.665" x="510.748" y="473.4639">mw_log_macro</text><line style="stroke:#181818;stroke-width:0.5;" x1="289" x2="804.6611" y1="481.7656" y2="481.7656"/><line style="stroke:#181818;stroke-width:0.5;" x1="289" x2="804.6611" y1="489.7656" y2="489.7656"/><ellipse cx="299" cy="503.4141" fill="#84BE84" rx="3" ry="3" style="stroke:#038048;stroke-width:1;"/><text fill="#000000" font-family="sans-serif" font-size="14" lengthAdjust="spacing" textLength="471.8984" x="308" y="506.7607">mw_log_format_args!(format_string: &amp;str, args...) : Arguments&lt;'_&gt;</text><ellipse cx="299" cy="519.7109" fill="#84BE84" rx="3" ry="3" style="stroke:#038048;stroke-width:1;"/><text fill="#000000" font-family="sans-serif" font-size="14" lengthAdjust="spacing" textLength="491.6611" x="308" y="523.0576">mw_log_format_args_nl!(format_string: &amp;str, args...) : Arguments&lt;'_&gt;</text></g><!--class ScoreDebug--><g id="elem_ScoreDebug"><rect codeLine="45" fill="#F1F1F1" height="72.5625" id="ScoreDebug" rx="2.5" ry="2.5" style="stroke:#181818;stroke-width:0.5;" width="473.7334" x="873" y="162.5"/><ellipse cx="1057.3374" cy="182.6328" fill="#B4A7E5" rx="11" ry="11" style="stroke:#181818;stroke-width:1;"/><path d="M1053.2593,178.3984 L1053.2593,176.2422 L1060.6499,176.2422 L1060.6499,178.3984 L1058.1812,178.3984 L1058.1812,186.4766 L1060.6499,186.4766 L1060.6499,188.6328 L1053.2593,188.6328 L1053.2593,186.4766 L1055.728,186.4766 L1055.728,178.3984 L1053.2593,178.3984 Z " fill="#000000"/><text fill="#000000" font-family="sans-serif" font-size="12" font-style="italic" lengthAdjust="spacing" textLength="39.8438" x="1106.1948" y="178.6387">&#171;trait&#187;</text><ellipse cx="1082.8374" cy="189.1172" fill="#84BE84" rx="3" ry="3" style="stroke:#038048;stroke-width:1;"/><text fill="#000000" font-family="sans-serif" font-size="14" font-style="italic" lengthAdjust="spacing" textLength="85.5586" x="1088.8374" y="194.4639">ScoreDebug</text><line style="stroke:#181818;stroke-width:0.5;" x1="874" x2="1345.7334" y1="202.7656" y2="202.7656"/><line style="stroke:#181818;stroke-width:0.5;" x1="874" x2="1345.7334" y1="210.7656" y2="210.7656"/><ellipse cx="884" cy="224.4141" fill="#84BE84" rx="3" ry="3" style="stroke:#038048;stroke-width:1;"/><text fill="#000000" font-family="sans-serif" font-size="14" lengthAdjust="spacing" textLength="447.7334" x="893" y="227.7607">fmt(&amp;self, f: &amp;mut dyn ScoreWrite, spec: &amp;FormatSpec) : Result</text></g><!--class ScoreDisplay--><g id="elem_ScoreDisplay"><rect codeLine="49" fill="#F1F1F1" height="72.5625" id="ScoreDisplay" rx="2.5" ry="2.5" style="stroke:#181818;stroke-width:0.5;" width="473.7334" x="873" y="449.5"/><ellipse cx="1054.5552" cy="469.6328" fill="#B4A7E5" rx="11" ry="11" style="stroke:#181818;stroke-width:1;"/><path d="M1050.4771,465.3984 L1050.4771,463.2422 L1057.8677,463.2422 L1057.8677,465.3984 L1055.3989,465.3984 L1055.3989,473.4766 L1057.8677,473.4766 L1057.8677,475.6328 L1050.4771,475.6328 L1050.4771,473.4766 L1052.9458,473.4766 L1052.9458,465.3984 L1050.4771,465.3984 Z " fill="#000000"/><text fill="#000000" font-family="sans-serif" font-size="12" font-style="italic" lengthAdjust="spacing" textLength="39.8438" x="1106.1948" y="465.6387">&#171;trait&#187;</text><ellipse cx="1080.0552" cy="476.1172" fill="#84BE84" rx="3" ry="3" style="stroke:#038048;stroke-width:1;"/><text fill="#000000" font-family="sans-serif" font-size="14" font-style="italic" lengthAdjust="spacing" textLength="91.123" x="1086.0552" y="481.4639">ScoreDisplay</text><line style="stroke:#181818;stroke-width:0.5;" x1="874" x2="1345.7334" y1="489.7656" y2="489.7656"/><line style="stroke:#181818;stroke-width:0.5;" x1="874" x2="1345.7334" y1="497.7656" y2="497.7656"/><ellipse cx="884" cy="511.4141" fill="#84BE84" rx="3" ry="3" style="stroke:#038048;stroke-width:1;"/><text fill="#000000" font-family="sans-serif" font-size="14" lengthAdjust="spacing" textLength="447.7334" x="893" y="514.7607">fmt(&amp;self, f: &amp;mut dyn ScoreWrite, spec: &amp;FormatSpec) : Result</text></g><!--class mw_log_fmt--><g id="elem_mw_log_fmt"><rect codeLine="53" fill="#F1F1F1" height="121.4531" id="mw_log_fmt" rx="2.5" ry="2.5" style="stroke:#181818;stroke-width:0.5;" width="495.834" x="862" y="631"/><ellipse cx="1063.4243" cy="651.1328" fill="#ADD1B2" rx="11" ry="11" style="stroke:#181818;stroke-width:1;"/><path d="M1066.3931,656.7734 Q1065.8149,657.0703 1065.1743,657.2109 Q1064.5337,657.3672 1063.8306,657.3672 Q1061.3306,657.3672 1060.0024,655.7266 Q1058.6899,654.0703 1058.6899,650.9453 Q1058.6899,647.8203 1060.0024,646.1641 Q1061.3306,644.5078 1063.8306,644.5078 Q1064.5337,644.5078 1065.1743,644.6641 Q1065.8306,644.8203 1066.3931,645.1172 L1066.3931,647.8359 Q1065.7681,647.2578 1065.1743,646.9922 Q1064.5806,646.7109 1063.9556,646.7109 Q1062.6118,646.7109 1061.9243,647.7891 Q1061.2368,648.8516 1061.2368,650.9453 Q1061.2368,653.0391 1061.9243,654.1172 Q1062.6118,655.1797 1063.9556,655.1797 Q1064.5806,655.1797 1065.1743,654.9141 Q1065.7681,654.6328 1066.3931,654.0547 L1066.3931,656.7734 Z " fill="#000000"/><text fill="#000000" font-family="sans-serif" font-size="12" font-style="italic" lengthAdjust="spacing" textLength="59.7832" x="1096.2754" y="647.1387">&#171;module&#187;</text><text fill="#000000" font-family="sans-serif" font-size="14" lengthAdjust="spacing" textLength="84.4854" x="1083.9243" y="662.9639">mw_log_fmt</text><line style="stroke:#181818;stroke-width:0.5;" x1="863" x2="1356.834" y1="671.2656" y2="671.2656"/><line style="stroke:#181818;stroke-width:0.5;" x1="863" x2="1356.834" y1="679.2656" y2="679.2656"/><ellipse cx="873" cy="692.9141" fill="#84BE84" rx="3" ry="3" style="stroke:#038048;stroke-width:1;"/><text fill="#000000" font-family="sans-serif" font-size="14" lengthAdjust="spacing" textLength="469.834" x="882" y="696.2607">write(output: &amp;mut dyn ScoreWrite, args: Arguments&lt;'_&gt;) : Result</text><text fill="#000000" font-family="sans-serif" font-size="14" lengthAdjust="spacing" textLength="4.4502" x="882" y="712.5576">&#160;</text><ellipse cx="873" cy="725.5078" fill="#84BE84" rx="3" ry="3" style="stroke:#038048;stroke-width:1;"/><text fill="#000000" font-family="sans-serif" font-size="14" lengthAdjust="spacing" textLength="339.6982" x="882" y="728.8545">score_write!(format_string: &amp;str, args...) : Result</text><ellipse cx="873" cy="741.8047" fill="#84BE84" rx="3" ry="3" style="stroke:#038048;stroke-width:1;"/><text fill="#000000" font-family="sans-serif" font-size="14" lengthAdjust="spacing" textLength="352.4609" x="882" y="745.1514">score_writeln!(format_string: &amp;str, args...) : Result</text></g><!--link ScoreDebug to ScoreDisplay--><!--link ScoreDisplay to mw_log_fmt--><!--link mw_log to Level--><g id="link_mw_log_Level"><path codeLine="65" d="M187.02,341.18 C162.99,360.03 139.78,380.12 119,401 C113.16,406.87 107.54,413.42 102.26,420.2 " fill="transparent" id="mw_log-Level" style="stroke:#181818;stroke-width:1;"/></g><!--link mw_log to LevelFilter--><g id="link_mw_log_LevelFilter"><path codeLine="66" d="M304.45,341.25 C286.76,364.48 269.04,387.76 253.16,408.61 " fill="transparent" id="mw_log-LevelFilter" style="stroke:#181818;stroke-width:1;"/></g><!--link mw_log to mw_log_macro--><g id="link_mw_log_mw_log_macro"><path codeLine="67" d="M478.91,341.25 C496.15,377.64 513.44,414.14 526.28,441.26 " fill="transparent" id="mw_log-mw_log_macro" style="stroke:#181818;stroke-width:1;"/></g><!--link mw_log to mw_log_fmt--><g id="link_mw_log_mw_log_fmt"><path codeLine="68" d="M675.75,199 C702.685,199 729.6225,199 756.56,199 C770.0288,199 783.4975,199 796.9659,199 C803.7002,199 810.4343,199 817.1683,199 C820.5353,199 823.9023,199 827.2693,199 C828.111,199 828.9527,199 829.7945,199 " fill="transparent" id="mw_log-mw_log_fmt" style="stroke:#181818;stroke-width:1;"/></g><!--SRC=[lLJRYjim47ttLoWlkmvnyW7165hQG25GQ0hxK8fHxB5NL1SZZPiiPV-zaksrPU5isKBhXuJncJapEcUiXXO_Q0s4gvgaQQ54eoH8p3BoAoBssO1i1Jd2J-0MTy48kUT0aV8n-gYrqcFqGBKSWq-oKcFm0SvjFKPVDIsWYvwZiEU1SGIzrFbpLVtRAGfEZI7YalVI25Ms76OZR0oWGslGSV-t9tVt1YcoWfHFaXnLlIPxyWLCop6Drmav0Hwxp6x8R4vrLbSeGyBtwfeENDbRo0Izvjn967U_UrzFnnElf_mfro5UufGoJENmy8ZHB6iL5qeYND4c6jG9yTidPBVRXTrjKGwIdZcKhnQxkhDIaz6Rolc-YXSumIcoY5piFYm2pEx68b2wFLb4qErCY2oiZpMZqEh64WqfbTA2OavrRLRn45W9cAnVj73GqEgThbjXFrEJtkVPQrIvv7_3DfoX6Iw75rw1_k3CEgKhgm0v5Kf3zpdPCrfH6CwEs7ibCBupmAk4L7O6qMAtFrtfWsO82J4D51OwTEEUR33j-yZr7DqUW9c6qwV_ESBCP2VFeiNztha6iMgnQV56SsT9u8RNVavdN5tUaVxPuE008G6NRwRmDF3CttvxP6K9ydkfBd8xSoL87wmA2YOX8tyDXpjuk-tlWQLttdKr8Vx7DuCqgnznrivsYdu3]--></g></svg>