<svg xmlns="http://www.w3.org/2000/svg" xmlns:xlink="http://www.w3.org/1999/xlink" contentStyleType="text/css" data-diagram-type="SEQUENCE" height="863px" preserveAspectRatio="none" style="width:1264px;height:863px;background:#FFFFFF;" version="1.1" viewBox="0 0 1264 863" width="1264px" zoomAndPan="magnify"><defs/><g><rect fill="#ADD8E6" height="851.8594" style="stroke:#181818;stroke-width:0.5;" width="149.4766" x="71.9102" y="6"/><rect fill="#90EE90" height="851.8594" style="stroke:#181818;stroke-width:0.5;" width="231.7676" x="223.3867" y="6"/><rect fill="#FFB6C1" height="851.8594" style="stroke:#181818;stroke-width:0.5;" width="413.377" x="457.1543" y="6"/><rect fill="#FFFFE0" height="851.8594" style="stroke:#181818;stroke-width:0.5;" width="348.5518" x="872.5313" y="6"/><rect fill="transparent" height="59.2656" style="stroke:#000000;stroke-width:1.5;" width="245.812" x="65.9102" y="103.7266"/><rect fill="transparent" height="59.2656" style="stroke:#000000;stroke-width:1.5;" width="252.832" x="65.9102" y="176.9922"/><rect fill="transparent" height="497.875" style="stroke:#000000;stroke-width:1.5;" width="1247.083" x="10" y="292.3906"/><rect fill="transparent" height="309.5391" style="stroke:#000000;stroke-width:1.5;" width="1181.1729" x="65.9102" y="459.7266"/><rect fill="transparent" height="192.4688" style="stroke:#000000;stroke-width:1.5;" width="614.1689" x="622.9141" y="541.7969"/><rect fill="transparent" height="161.3359" style="stroke:#000000;stroke-width:1.5;" width="594.1689" x="632.9141" y="565.9297"/><g><title>User</title><rect fill="transparent" height="749.6719" width="8" x="38.9551" y="57.5938"/><line style="stroke:#181818;stroke-width:0.5;stroke-dasharray:5.0,5.0;" x1="42" x2="42" y1="57.5938" y2="807.2656"/></g><g><title>mw_log &lt;&lt;module&gt;&gt;</title><rect fill="transparent" height="749.6719" width="8" x="142.6484" y="57.5938"/><line style="stroke:#181818;stroke-width:0.5;stroke-dasharray:5.0,5.0;" x1="145.9102" x2="145.9102" y1="57.5938" y2="807.2656"/></g><g><title>mw_log_fmt_macro &lt;&lt;module&gt;&gt;</title><rect fill="transparent" height="749.6719" width="8" x="335.2705" y="57.5938"/><line style="stroke:#181818;stroke-width:0.5;stroke-dasharray:5.0,5.0;" x1="338.3867" x2="338.3867" y1="57.5938" y2="807.2656"/></g><g><title>Logger</title><rect fill="transparent" height="749.6719" width="8" x="543.0342" y="57.5938"/><line style="stroke:#181818;stroke-width:0.5;stroke-dasharray:5.0,5.0;" x1="546.1543" x2="546.1543" y1="57.5938" y2="807.2656"/></g><g><title>Writer</title><rect fill="transparent" height="749.6719" width="8" x="750.7227" y="57.5938"/><line style="stroke:#181818;stroke-width:0.5;stroke-dasharray:5.0,5.0;" x1="753.9141" x2="753.9141" y1="57.5938" y2="807.2656"/></g><g><title>mw_log_fmt</title><rect fill="transparent" height="749.6719" width="8" x="921.7739" y="57.5938"/><line style="stroke:#181818;stroke-width:0.5;stroke-dasharray:5.0,5.0;" x1="925.5313" x2="925.5313" y1="57.5938" y2="807.2656"/></g><g><title>ConcreteType</title><rect fill="transparent" height="749.6719" width="8" x="1097.0498" y="57.5938"/><line style="stroke:#181818;stroke-width:0.5;stroke-dasharray:5.0,5.0;" x1="1101.0166" x2="1101.0166" y1="57.5938" y2="807.2656"/></g><rect fill="#E2E2F0" height="30.2969" rx="2.5" ry="2.5" style="stroke:#181818;stroke-width:0.5;" width="45.9102" x="20" y="26.2969"/><text fill="#000000" font-family="sans-serif" font-size="14" lengthAdjust="spacing" textLength="31.9102" x="27" y="46.292">User</text><rect fill="#E2E2F0" height="30.2969" rx="2.5" ry="2.5" style="stroke:#181818;stroke-width:0.5;" width="45.9102" x="20" y="806.2656"/><text fill="#000000" font-family="sans-serif" font-size="14" lengthAdjust="spacing" textLength="31.9102" x="27" y="826.2607">User</text><rect fill="#E2E2F0" height="30.2969" rx="2.5" ry="2.5" style="stroke:#181818;stroke-width:0.5;" width="141.4766" x="75.9102" y="26.2969"/><text fill="#000000" font-family="sans-serif" font-size="14" lengthAdjust="spacing" textLength="127.4766" x="82.9102" y="46.292">mw_log &#171;module&#187;</text><rect fill="#E2E2F0" height="30.2969" rx="2.5" ry="2.5" style="stroke:#181818;stroke-width:0.5;" width="141.4766" x="75.9102" y="806.2656"/><text fill="#000000" font-family="sans-serif" font-size="14" lengthAdjust="spacing" textLength="127.4766" x="82.9102" y="826.2607">mw_log &#171;module&#187;</text><rect fill="#E2E2F0" height="30.2969" rx="2.5" ry="2.5" style="stroke:#181818;stroke-width:0.5;" width="223.7676" x="227.3867" y="26.2969"/><text fill="#000000" font-family="sans-serif" font-size="14" lengthAdjust="spacing" textLength="209.7676" x="234.3867" y="46.292">mw_log_fmt_macro &#171;module&#187;</text><rect fill="#E2E2F0" height="30.2969" rx="2.5" ry="2.5" style="stroke:#181818;stroke-width:0.5;" width="223.7676" x="227.3867" y="806.2656"/><text fill="#000000" font-family="sans-serif" font-size="14" lengthAdjust="spacing" textLength="209.7676" x="234.3867" y="826.2607">mw_log_fmt_macro &#171;module&#187;</text><rect fill="#E2E2F0" height="46.5938" rx="2.5" ry="2.5" style="stroke:#181818;stroke-width:0.5;" width="171.7598" x="461.1543" y="10"/><text fill="#000000" font-family="sans-serif" font-size="14" lengthAdjust="spacing" textLength="48.5078" x="522.7803" y="29.9951">Logger</text><text fill="#000000" font-family="sans-serif" font-size="14" lengthAdjust="spacing" textLength="157.7598" x="468.1543" y="46.292">&#171;Log implementation&#187;</text><rect fill="#E2E2F0" height="46.5938" rx="2.5" ry="2.5" style="stroke:#181818;stroke-width:0.5;" width="171.7598" x="461.1543" y="806.2656"/><text fill="#000000" font-family="sans-serif" font-size="14" lengthAdjust="spacing" textLength="48.5078" x="522.7803" y="826.2607">Logger</text><text fill="#000000" font-family="sans-serif" font-size="14" lengthAdjust="spacing" textLength="157.7598" x="468.1543" y="842.5576">&#171;Log implementation&#187;</text><rect fill="#E2E2F0" height="46.5938" rx="2.5" ry="2.5" style="stroke:#181818;stroke-width:0.5;" width="223.6172" x="642.9141" y="10"/><text fill="#000000" font-family="sans-serif" font-size="14" lengthAdjust="spacing" textLength="43.3467" x="733.0493" y="29.9951">Writer</text><text fill="#000000" font-family="sans-serif" font-size="14" lengthAdjust="spacing" textLength="209.6172" x="649.9141" y="46.292">&#171;ScoreWrite implementation&#187;</text><rect fill="#E2E2F0" height="46.5938" rx="2.5" ry="2.5" style="stroke:#181818;stroke-width:0.5;" width="223.6172" x="642.9141" y="806.2656"/><text fill="#000000" font-family="sans-serif" font-size="14" lengthAdjust="spacing" textLength="43.3467" x="733.0493" y="826.2607">Writer</text><text fill="#000000" font-family="sans-serif" font-size="14" lengthAdjust="spacing" textLength="209.6172" x="649.9141" y="842.5576">&#171;ScoreWrite implementation&#187;</text><rect fill="#E2E2F0" height="46.5938" rx="2.5" ry="2.5" style="stroke:#181818;stroke-width:0.5;" width="98.4854" x="876.5313" y="10"/><text fill="#000000" font-family="sans-serif" font-size="14" lengthAdjust="spacing" textLength="84.4854" x="883.5313" y="29.9951">mw_log_fmt</text><text fill="#000000" font-family="sans-serif" font-size="14" lengthAdjust="spacing" textLength="69.5967" x="890.9756" y="46.292">&#171;module&#187;</text><rect fill="#E2E2F0" height="46.5938" rx="2.5" ry="2.5" style="stroke:#181818;stroke-width:0.5;" width="98.4854" x="876.5313" y="806.2656"/><text fill="#000000" font-family="sans-serif" font-size="14" lengthAdjust="spacing" textLength="84.4854" x="883.5313" y="826.2607">mw_log_fmt</text><text fill="#000000" font-family="sans-serif" font-size="14" lengthAdjust="spacing" textLength="69.5967" x="890.9756" y="842.5576">&#171;module&#187;</text><rect fill="#E2E2F0" height="46.5938" rx="2.5" ry="2.5" style="stroke:#181818;stroke-width:0.5;" width="232.0664" x="985.0166" y="10"/><text fill="#000000" font-family="sans-serif" font-size="14" lengthAdjust="spacing" textLength="97.7197" x="1052.1899" y="29.9951">ConcreteType</text><text fill="#000000" font-family="sans-serif" font-size="14" lengthAdjust="spacing" textLength="218.0664" x="992.0166" y="46.292">&#171;ScoreDebug implementation&#187;</text><rect fill="#E2E2F0" height="46.5938" rx="2.5" ry="2.5" style="stroke:#181818;stroke-width:0.5;" width="232.0664" x="985.0166" y="806.2656"/><text fill="#000000" font-family="sans-serif" font-size="14" lengthAdjust="spacing" textLength="97.7197" x="1052.1899" y="826.2607">ConcreteType</text><text fill="#000000" font-family="sans-serif" font-size="14" lengthAdjust="spacing" textLength="218.0664" x="992.0166" y="842.5576">&#171;ScoreDebug implementation&#187;</text><polygon fill="#181818" points="134.6484,84.7266,144.6484,88.7266,134.6484,92.7266,138.6484,88.7266" style="stroke:#181818;stroke-width:1;"/><line style="stroke:#181818;stroke-width:1;" x1="42.9551" x2="140.6484" y1="88.7266" y2="88.7266"/><text fill="#000000" font-family="sans-serif" font-size="13" lengthAdjust="spacing" textLength="35.1724" x="49.9551" y="83.6606">log!()</text><path d="M65.9102,103.7266 L130.353,103.7266 L130.353,110.8594 L120.353,120.8594 L65.9102,120.8594 L65.9102,103.7266 " fill="#EEEEEE" style="stroke:#000000;stroke-width:1.5;"/><rect fill="transparent" height="59.2656" style="stroke:#000000;stroke-width:1.5;" width="245.812" x="65.9102" y="103.7266"/><text fill="#000000" font-family="sans-serif" font-size="13" font-weight="bold" lengthAdjust="spacing" textLength="19.4429" x="80.9102" y="116.7935">alt</text><text fill="#000000" font-family="sans-serif" font-size="11" font-weight="bold" lengthAdjust="spacing" textLength="161.3691" x="145.353" y="115.937">[no-user-provided-logger]</text><line style="stroke:#181818;stroke-width:1;" x1="146.6484" x2="188.6484" y1="141.9922" y2="141.9922"/><line style="stroke:#181818;stroke-width:1;" x1="188.6484" x2="188.6484" y1="141.9922" y2="154.9922"/><line style="stroke:#181818;stroke-width:1;" x1="147.6484" x2="188.6484" y1="154.9922" y2="154.9922"/><polygon fill="#181818" points="157.6484,150.9922,147.6484,154.9922,157.6484,158.9922,153.6484,154.9922" style="stroke:#181818;stroke-width:1;"/><text fill="#000000" font-family="sans-serif" font-size="13" lengthAdjust="spacing" textLength="51.5557" x="153.6484" y="136.9263">logger()</text><path d="M65.9102,176.9922 L130.353,176.9922 L130.353,184.125 L120.353,194.125 L65.9102,194.125 L65.9102,176.9922 " fill="#EEEEEE" style="stroke:#000000;stroke-width:1.5;"/><rect fill="transparent" height="59.2656" style="stroke:#000000;stroke-width:1.5;" width="252.832" x="65.9102" y="176.9922"/><text fill="#000000" font-family="sans-serif" font-size="13" font-weight="bold" lengthAdjust="spacing" textLength="19.4429" x="80.9102" y="190.0591">alt</text><text fill="#000000" font-family="sans-serif" font-size="11" font-weight="bold" lengthAdjust="spacing" textLength="168.3892" x="145.353" y="189.2026">[no-user-provided-context]</text><line style="stroke:#181818;stroke-width:1;" x1="146.6484" x2="188.6484" y1="215.2578" y2="215.2578"/><line style="stroke:#181818;stroke-width:1;" x1="188.6484" x2="188.6484" y1="215.2578" y2="228.2578"/><line style="stroke:#181818;stroke-width:1;" x1="147.6484" x2="188.6484" y1="228.2578" y2="228.2578"/><polygon fill="#181818" points="157.6484,224.2578,147.6484,228.2578,157.6484,232.2578,153.6484,228.2578" style="stroke:#181818;stroke-width:1;"/><text fill="#000000" font-family="sans-serif" font-size="13" lengthAdjust="spacing" textLength="94.9165" x="153.6484" y="210.1919">module_path()</text><line style="stroke:#181818;stroke-width:1;" x1="146.6484" x2="188.6484" y1="264.3906" y2="264.3906"/><line style="stroke:#181818;stroke-width:1;" x1="188.6484" x2="188.6484" y1="264.3906" y2="277.3906"/><line style="stroke:#181818;stroke-width:1;" x1="147.6484" x2="188.6484" y1="277.3906" y2="277.3906"/><polygon fill="#181818" points="157.6484,273.3906,147.6484,277.3906,157.6484,281.3906,153.6484,277.3906" style="stroke:#181818;stroke-width:1;"/><text fill="#000000" font-family="sans-serif" font-size="13" lengthAdjust="spacing" textLength="75.8799" x="153.6484" y="259.3247">max_level()</text><path d="M10,292.3906 L74.4429,292.3906 L74.4429,299.5234 L64.4429,309.5234 L10,309.5234 L10,292.3906 " fill="#EEEEEE" style="stroke:#000000;stroke-width:1.5;"/><rect fill="transparent" height="497.875" style="stroke:#000000;stroke-width:1.5;" width="1247.083" x="10" y="292.3906"/><text fill="#000000" font-family="sans-serif" font-size="13" font-weight="bold" lengthAdjust="spacing" textLength="19.4429" x="25" y="305.4575">alt</text><text fill="#000000" font-family="sans-serif" font-size="11" font-weight="bold" lengthAdjust="spacing" textLength="143.3169" x="89.4429" y="304.6011">[log-level-check-failed]</text><polygon fill="#181818" points="53.9551,311.5234,43.9551,315.5234,53.9551,319.5234,49.9551,315.5234" style="stroke:#181818;stroke-width:1;"/><line style="stroke:#181818;stroke-width:1;stroke-dasharray:2.0,2.0;" x1="47.9551" x2="145.6484" y1="315.5234" y2="315.5234"/><line style="stroke:#000000;stroke-width:1;stroke-dasharray:2.0,2.0;" x1="10" x2="1257.083" y1="324.5234" y2="324.5234"/><text fill="#000000" font-family="sans-serif" font-size="11" font-weight="bold" lengthAdjust="spacing" textLength="151.959" x="15" y="334.7339">[log-level-check-passed]</text><polygon fill="#181818" points="327.2705,355.4609,337.2705,359.4609,327.2705,363.4609,331.2705,359.4609" style="stroke:#181818;stroke-width:1;"/><line style="stroke:#181818;stroke-width:1;" x1="146.6484" x2="333.2705" y1="359.4609" y2="359.4609"/><text fill="#000000" font-family="sans-serif" font-size="13" lengthAdjust="spacing" textLength="149.9063" x="153.6484" y="354.395">mw_log_format_args!()</text><polygon fill="#181818" points="157.6484,369.4609,147.6484,373.4609,157.6484,377.4609,153.6484,373.4609" style="stroke:#181818;stroke-width:1;"/><line style="stroke:#181818;stroke-width:1;stroke-dasharray:2.0,2.0;" x1="151.6484" x2="338.2705" y1="373.4609" y2="373.4609"/><polygon fill="#181818" points="535.0342,398.5938,545.0342,402.5938,535.0342,406.5938,539.0342,402.5938" style="stroke:#181818;stroke-width:1;"/><line style="stroke:#181818;stroke-width:1;" x1="146.6484" x2="541.0342" y1="402.5938" y2="402.5938"/><text fill="#000000" font-family="sans-serif" font-size="13" lengthAdjust="spacing" textLength="29.9609" x="153.6484" y="397.5278">log()</text><line style="stroke:#181818;stroke-width:1;" x1="547.0342" x2="589.0342" y1="431.7266" y2="431.7266"/><line style="stroke:#181818;stroke-width:1;" x1="589.0342" x2="589.0342" y1="431.7266" y2="444.7266"/><line style="stroke:#181818;stroke-width:1;" x1="548.0342" x2="589.0342" y1="444.7266" y2="444.7266"/><polygon fill="#181818" points="558.0342,440.7266,548.0342,444.7266,558.0342,448.7266,554.0342,444.7266" style="stroke:#181818;stroke-width:1;"/><text fill="#000000" font-family="sans-serif" font-size="13" lengthAdjust="spacing" textLength="62.4609" x="554.0342" y="426.6606">enabled()</text><path d="M65.9102,459.7266 L130.353,459.7266 L130.353,466.8594 L120.353,476.8594 L65.9102,476.8594 L65.9102,459.7266 " fill="#EEEEEE" style="stroke:#000000;stroke-width:1.5;"/><rect fill="transparent" height="309.5391" style="stroke:#000000;stroke-width:1.5;" width="1181.1729" x="65.9102" y="459.7266"/><text fill="#000000" font-family="sans-serif" font-size="13" font-weight="bold" lengthAdjust="spacing" textLength="19.4429" x="80.9102" y="472.7935">alt</text><text fill="#000000" font-family="sans-serif" font-size="11" font-weight="bold" lengthAdjust="spacing" textLength="129.4863" x="145.353" y="471.937">[logger-not-enabled]</text><polygon fill="#181818" points="157.6484,478.8594,147.6484,482.8594,157.6484,486.8594,153.6484,482.8594" style="stroke:#181818;stroke-width:1;"/><line style="stroke:#181818;stroke-width:1;stroke-dasharray:2.0,2.0;" x1="151.6484" x2="546.0342" y1="482.8594" y2="482.8594"/><line style="stroke:#000000;stroke-width:1;stroke-dasharray:2.0,2.0;" x1="65.9102" x2="1247.083" y1="491.8594" y2="491.8594"/><text fill="#000000" font-family="sans-serif" font-size="11" font-weight="bold" lengthAdjust="spacing" textLength="104.2744" x="70.9102" y="502.0698">[logger-enabled]</text><polygon fill="#181818" points="913.7739,522.7969,923.7739,526.7969,913.7739,530.7969,917.7739,526.7969" style="stroke:#181818;stroke-width:1;"/><line style="stroke:#181818;stroke-width:1;" x1="547.0342" x2="919.7739" y1="526.7969" y2="526.7969"/><text fill="#000000" font-family="sans-serif" font-size="13" lengthAdjust="spacing" textLength="277.583" x="554.0342" y="521.731">write(writer: ScoreWrite, args: Arguments)</text><path d="M622.9141,541.7969 L699.5381,541.7969 L699.5381,548.9297 L689.5381,558.9297 L622.9141,558.9297 L622.9141,541.7969 " fill="#EEEEEE" style="stroke:#000000;stroke-width:1.5;"/><rect fill="transparent" height="192.4688" style="stroke:#000000;stroke-width:1.5;" width="614.1689" x="622.9141" y="541.7969"/><text fill="#000000" font-family="sans-serif" font-size="13" font-weight="bold" lengthAdjust="spacing" textLength="31.624" x="637.9141" y="554.8638">loop</text><text fill="#000000" font-family="sans-serif" font-size="11" font-weight="bold" lengthAdjust="spacing" textLength="214.3657" x="714.5381" y="554.0073">[process-format-string-fragments]</text><path d="M632.9141,565.9297 L697.3569,565.9297 L697.3569,573.0625 L687.3569,583.0625 L632.9141,583.0625 L632.9141,565.9297 " fill="#EEEEEE" style="stroke:#000000;stroke-width:1.5;"/><rect fill="transparent" height="161.3359" style="stroke:#000000;stroke-width:1.5;" width="594.1689" x="632.9141" y="565.9297"/><text fill="#000000" font-family="sans-serif" font-size="13" font-weight="bold" lengthAdjust="spacing" textLength="19.4429" x="647.9141" y="578.9966">alt</text><text fill="#000000" font-family="sans-serif" font-size="11" font-weight="bold" lengthAdjust="spacing" textLength="61.8159" x="712.3569" y="578.1401">[is-literal]</text><polygon fill="#181818" points="765.7227,600.1953,755.7227,604.1953,765.7227,608.1953,761.7227,604.1953" style="stroke:#181818;stroke-width:1;"/><line style="stroke:#181818;stroke-width:1;" x1="759.7227" x2="924.7739" y1="604.1953" y2="604.1953"/><text fill="#000000" font-family="sans-serif" font-size="13" lengthAdjust="spacing" textLength="66.5425" x="771.7227" y="599.1294">write_str()</text><polygon fill="#181818" points="913.7739,614.1953,923.7739,618.1953,913.7739,622.1953,917.7739,618.1953" style="stroke:#181818;stroke-width:1;"/><line style="stroke:#181818;stroke-width:1;stroke-dasharray:2.0,2.0;" x1="754.7227" x2="919.7739" y1="618.1953" y2="618.1953"/><line style="stroke:#000000;stroke-width:1;stroke-dasharray:2.0,2.0;" x1="632.9141" x2="1227.083" y1="627.1953" y2="627.1953"/><text fill="#000000" font-family="sans-serif" font-size="11" font-weight="bold" lengthAdjust="spacing" textLength="97.9043" x="637.9141" y="637.4058">[is-placeholder]</text><polygon fill="#181818" points="1089.0498,658.1328,1099.0498,662.1328,1089.0498,666.1328,1093.0498,662.1328" style="stroke:#181818;stroke-width:1;"/><line style="stroke:#181818;stroke-width:1;" x1="925.7739" x2="1095.0498" y1="662.1328" y2="662.1328"/><text fill="#000000" font-family="sans-serif" font-size="13" lengthAdjust="spacing" textLength="32.481" x="932.7739" y="657.0669">fmt()</text><polygon fill="#181818" points="936.7739,672.1328,926.7739,676.1328,936.7739,680.1328,932.7739,676.1328" style="stroke:#181818;stroke-width:1;"/><line style="stroke:#181818;stroke-width:1;stroke-dasharray:2.0,2.0;" x1="930.7739" x2="1100.0498" y1="676.1328" y2="676.1328"/><polygon fill="#181818" points="765.7227,701.2656,755.7227,705.2656,765.7227,709.2656,761.7227,705.2656" style="stroke:#181818;stroke-width:1;"/><line style="stroke:#181818;stroke-width:1;" x1="759.7227" x2="924.7739" y1="705.2656" y2="705.2656"/><text fill="#000000" font-family="sans-serif" font-size="13" lengthAdjust="spacing" textLength="100.1533" x="771.7227" y="700.1997">write_&lt;type&gt;()</text><polygon fill="#181818" points="913.7739,715.2656,923.7739,719.2656,913.7739,723.2656,917.7739,719.2656" style="stroke:#181818;stroke-width:1;"/><line style="stroke:#181818;stroke-width:1;stroke-dasharray:2.0,2.0;" x1="754.7227" x2="919.7739" y1="719.2656" y2="719.2656"/><polygon fill="#181818" points="558.0342,743.2656,548.0342,747.2656,558.0342,751.2656,554.0342,747.2656" style="stroke:#181818;stroke-width:1;"/><line style="stroke:#181818;stroke-width:1;stroke-dasharray:2.0,2.0;" x1="552.0342" x2="924.7739" y1="747.2656" y2="747.2656"/><polygon fill="#181818" points="157.6484,757.2656,147.6484,761.2656,157.6484,765.2656,153.6484,761.2656" style="stroke:#181818;stroke-width:1;"/><line style="stroke:#181818;stroke-width:1;stroke-dasharray:2.0,2.0;" x1="151.6484" x2="546.0342" y1="761.2656" y2="761.2656"/><polygon fill="#181818" points="53.9551,778.2656,43.9551,782.2656,53.9551,786.2656,49.9551,782.2656" style="stroke:#181818;stroke-width:1;"/><line style="stroke:#181818;stroke-width:1;stroke-dasharray:2.0,2.0;" x1="47.9551" x2="145.6484" y1="782.2656" y2="782.2656"/><!--SRC=[dLFDYjim4BxxATJTImBL2mHZw0_qieT2koo5Wb7aYIDMbeGaRx9ltv4inx9Z5zgS7CttCzzeP9ZrWWl3b2SFpmxi0s6ECEwrBOgZlfB79z6U_MVPGs5oR7UffMv9MNQwwILKLIGEfmMeXY0vL_Xc0TIQH7tgVDqnRlMws5HVa_qkrEjSzKctBTZVgYpnYuZEIEX0UUQ5LabOHiYSzcA57sW_kBOG_wwpBn6vrimla59Vja86xOrySyeNhRW53p_V3TmQ-Wh7VYEE2_Mw2O2fgtY5X5R9XHn2wW-xFLQa9qhJ7Y-R6glVH0CDJICX-4k41HMhI4Rv3G6kbOUhtr8OWjU6-VCeiuPYrrh26yYnJpocyO3oC_1NUc92GZCpGNvQLv0ExXY6ERTWL7UR5QpJaROTypMphGl3ccWPcDuKYeNkCATXO252gAQpl0gA7J76Y4X1iKQLzZHLOoaNMBYEQGDjYv8dHT-ukRjXVmzaslEF9EGza4-sxSDokNscf0t1I-RW71s6GvstGhNqP5aRqJVm64OuAeC7axFIV9YXkw6LiRCQXNVxEqe2qLcQ6IgE0asDP1pEMZPfaxUDioU3xdYuufjZ5kR_5glq-92h_qkcfakDZsRDyBPQVrcPNEpkvOJ27m00]--></g></svg>