<svg xmlns="http://www.w3.org/2000/svg" xmlns:xlink="http://www.w3.org/1999/xlink" contentStyleType="text/css" data-diagram-type="CLASS" height="594px" preserveAspectRatio="none" style="width:1688px;height:594px;background:#FFFFFF;" version="1.1" viewBox="0 0 1688 594" width="1688px" zoomAndPan="magnify"><defs/><g><!--cluster log--><g id="cluster_log"><path d="M8.5,6 L33.9385,6 A3.75,3.75 0 0 1 36.4385,8.5 L43.4385,28.2969 L1678.5,28.2969 A2.5,2.5 0 0 1 1681,30.7969 L1681,584.5 A2.5,2.5 0 0 1 1678.5,587 L8.5,587 A2.5,2.5 0 0 1 6,584.5 L6,8.5 A2.5,2.5 0 0 1 8.5,6 " fill="transparent" style="stroke:#000000;stroke-width:1.5;"/><line style="stroke:#000000;stroke-width:1.5;" x1="6" x2="43.4385" y1="28.2969" y2="28.2969"/><text fill="#000000" font-family="sans-serif" font-size="14" font-weight="bold" lengthAdjust="spacing" textLength="24.4385" x="10" y="20.9951">log</text><text fill="#000000" font-family="sans-serif" font-size="14" font-style="italic" lengthAdjust="spacing" textLength="96.4824" x="799.2588" y="43.292">&#171;component&#187;</text></g><!--cluster mw_log_fmt--><g id="cluster_mw_log_fmt"><path d="M579.5,103.5 L673.8311,103.5 A3.75,3.75 0 0 1 676.3311,106 L683.3311,125.7969 L1646.5,125.7969 A2.5,2.5 0 0 1 1649,128.2969 L1649,273 A2.5,2.5 0 0 1 1646.5,275.5 L579.5,275.5 A2.5,2.5 0 0 1 577,273 L577,106 A2.5,2.5 0 0 1 579.5,103.5 " fill="transparent" style="stroke:#000000;stroke-width:1.5;"/><line style="stroke:#000000;stroke-width:1.5;" x1="577" x2="683.3311" y1="125.7969" y2="125.7969"/><text fill="#000000" font-family="sans-serif" font-size="14" font-weight="bold" lengthAdjust="spacing" textLength="93.3311" x="581" y="118.4951">mw_log_fmt</text></g><!--class Level--><g id="elem_Level"><rect codeLine="3" fill="#F1F1F1" height="154.0469" id="Level" rx="2.5" ry="2.5" style="stroke:#181818;stroke-width:0.5;" width="80.2012" x="113" y="409"/><ellipse cx="128" cy="429.1328" fill="#EB937F" rx="11" ry="11" style="stroke:#181818;stroke-width:1;"/><path d="M132.1094,435.1328 L124.3906,435.1328 L124.3906,422.7422 L132.1094,422.7422 L132.1094,424.8984 L126.8438,424.8984 L126.8438,427.5703 L131.6094,427.5703 L131.6094,429.7266 L126.8438,429.7266 L126.8438,432.9766 L132.1094,432.9766 L132.1094,435.1328 Z " fill="#000000"/><text fill="#000000" font-family="sans-serif" font-size="12" font-style="italic" lengthAdjust="spacing" textLength="49.0957" x="141.5527" y="425.1387">&#171;enum&#187;</text><ellipse cx="147" cy="435.6172" fill="#84BE84" rx="3" ry="3" style="stroke:#038048;stroke-width:1;"/><text fill="#000000" font-family="sans-serif" font-size="14" lengthAdjust="spacing" textLength="37.2012" x="153" y="440.9639">Level</text><line style="stroke:#181818;stroke-width:0.5;" x1="114" x2="192.2012" y1="449.2656" y2="449.2656"/><text fill="#000000" font-family="sans-serif" font-size="14" lengthAdjust="spacing" textLength="34.5898" x="119" y="466.2607">Fatal</text><text fill="#000000" font-family="sans-serif" font-size="14" lengthAdjust="spacing" textLength="34.6787" x="119" y="482.5576">Error</text><text fill="#000000" font-family="sans-serif" font-size="14" lengthAdjust="spacing" textLength="37.0508" x="119" y="498.8545">Warn</text><text fill="#000000" font-family="sans-serif" font-size="14" lengthAdjust="spacing" textLength="26.4961" x="119" y="515.1514">Info</text><text fill="#000000" font-family="sans-serif" font-size="14" lengthAdjust="spacing" textLength="46.04" x="119" y="531.4482">Debug</text><text fill="#000000" font-family="sans-serif" font-size="14" lengthAdjust="spacing" textLength="39.1973" x="119" y="547.7451">Trace</text><line style="stroke:#181818;stroke-width:0.5;" x1="114" x2="192.2012" y1="555.0469" y2="555.0469"/></g><!--class LevelFilter--><g id="elem_LevelFilter"><rect codeLine="12" fill="#F1F1F1" height="170.3438" id="LevelFilter" rx="2.5" ry="2.5" style="stroke:#181818;stroke-width:0.5;" width="115.8916" x="228" y="401"/><ellipse cx="243" cy="421.1328" fill="#EB937F" rx="11" ry="11" style="stroke:#181818;stroke-width:1;"/><path d="M247.1094,427.1328 L239.3906,427.1328 L239.3906,414.7422 L247.1094,414.7422 L247.1094,416.8984 L241.8438,416.8984 L241.8438,419.5703 L246.6094,419.5703 L246.6094,421.7266 L241.8438,421.7266 L241.8438,424.9766 L247.1094,424.9766 L247.1094,427.1328 Z " fill="#000000"/><text fill="#000000" font-family="sans-serif" font-size="12" font-style="italic" lengthAdjust="spacing" textLength="49.0957" x="274.3979" y="417.1387">&#171;enum&#187;</text><ellipse cx="262" cy="427.6172" fill="#84BE84" rx="3" ry="3" style="stroke:#038048;stroke-width:1;"/><text fill="#000000" font-family="sans-serif" font-size="14" lengthAdjust="spacing" textLength="72.8916" x="268" y="432.9639">LevelFilter</text><line style="stroke:#181818;stroke-width:0.5;" x1="229" x2="342.8916" y1="441.2656" y2="441.2656"/><text fill="#000000" font-family="sans-serif" font-size="14" lengthAdjust="spacing" textLength="20.877" x="234" y="458.2607">Off</text><text fill="#000000" font-family="sans-serif" font-size="14" lengthAdjust="spacing" textLength="34.5898" x="234" y="474.5576">Fatal</text><text fill="#000000" font-family="sans-serif" font-size="14" lengthAdjust="spacing" textLength="34.6787" x="234" y="490.8545">Error</text><text fill="#000000" font-family="sans-serif" font-size="14" lengthAdjust="spacing" textLength="37.0508" x="234" y="507.1514">Warn</text><text fill="#000000" font-family="sans-serif" font-size="14" lengthAdjust="spacing" textLength="26.4961" x="234" y="523.4482">Info</text><text fill="#000000" font-family="sans-serif" font-size="14" lengthAdjust="spacing" textLength="46.04" x="234" y="539.7451">Debug</text><text fill="#000000" font-family="sans-serif" font-size="14" lengthAdjust="spacing" textLength="39.1973" x="234" y="556.042">Trace</text><line style="stroke:#181818;stroke-width:0.5;" x1="229" x2="342.8916" y1="563.3438" y2="563.3438"/></g><!--class mw_log--><g id="elem_mw_log"><rect codeLine="22" fill="#F1F1F1" height="284.4219" id="mw_log" rx="2.5" ry="2.5" style="stroke:#181818;stroke-width:0.5;" width="526.5479" x="22.5" y="57"/><ellipse cx="253.6323" cy="77.1328" fill="#ADD1B2" rx="11" ry="11" style="stroke:#181818;stroke-width:1;"/><path d="M256.6011,82.7734 Q256.0229,83.0703 255.3823,83.2109 Q254.7417,83.3672 254.0386,83.3672 Q251.5386,83.3672 250.2104,81.7266 Q248.8979,80.0703 248.8979,76.9453 Q248.8979,73.8203 250.2104,72.1641 Q251.5386,70.5078 254.0386,70.5078 Q254.7417,70.5078 255.3823,70.6641 Q256.0386,70.8203 256.6011,71.1172 L256.6011,73.8359 Q255.9761,73.2578 255.3823,72.9922 Q254.7886,72.7109 254.1636,72.7109 Q252.8198,72.7109 252.1323,73.7891 Q251.4448,74.8516 251.4448,76.9453 Q251.4448,79.0391 252.1323,80.1172 Q252.8198,81.1797 254.1636,81.1797 Q254.7886,81.1797 255.3823,80.9141 Q255.9761,80.6328 256.6011,80.0547 L256.6011,82.7734 Z " fill="#000000"/><text fill="#000000" font-family="sans-serif" font-size="12" font-style="italic" lengthAdjust="spacing" textLength="59.7832" x="272.1323" y="73.1387">&#171;module&#187;</text><text fill="#000000" font-family="sans-serif" font-size="14" lengthAdjust="spacing" textLength="53.4297" x="275.3091" y="88.9639">mw_log</text><line style="stroke:#181818;stroke-width:0.5;" x1="23.5" x2="548.0479" y1="97.2656" y2="97.2656"/><line style="stroke:#181818;stroke-width:0.5;" x1="23.5" x2="548.0479" y1="105.2656" y2="105.2656"/><ellipse cx="33.5" cy="118.9141" fill="#84BE84" rx="3" ry="3" style="stroke:#038048;stroke-width:1;"/><text fill="#000000" font-family="sans-serif" font-size="14" lengthAdjust="spacing" textLength="458.0488" x="42.5" y="122.2607">set_logger(logger: &amp;'static dyn Log) : Result&lt;(), SetLoggerError&gt;</text><ellipse cx="33.5" cy="135.2109" fill="#84BE84" rx="3" ry="3" style="stroke:#038048;stroke-width:1;"/><text fill="#000000" font-family="sans-serif" font-size="14" lengthAdjust="spacing" textLength="500.5479" x="42.5" y="138.5576">set_boxed_logger(logger: Box&lt;dyn Log&gt;) : Result&lt;(), SetLoggerError&gt;</text><ellipse cx="33.5" cy="151.5078" fill="#84BE84" rx="3" ry="3" style="stroke:#038048;stroke-width:1;"/><text fill="#000000" font-family="sans-serif" font-size="14" lengthAdjust="spacing" textLength="250.0039" x="42.5" y="154.8545">set_max_level(level: LevelFilter) : ()</text><ellipse cx="33.5" cy="167.8047" fill="#84BE84" rx="3" ry="3" style="stroke:#038048;stroke-width:1;"/><text fill="#000000" font-family="sans-serif" font-size="14" lengthAdjust="spacing" textLength="168.2256" x="42.5" y="171.1514">max_level() : LevelFilter</text><ellipse cx="33.5" cy="184.1016" fill="#84BE84" rx="3" ry="3" style="stroke:#038048;stroke-width:1;"/><text fill="#000000" font-family="sans-serif" font-size="14" lengthAdjust="spacing" textLength="182.54" x="42.5" y="187.4482">logger() : &amp;'static dyn Log</text><text fill="#000000" font-family="sans-serif" font-size="14" lengthAdjust="spacing" textLength="4.4502" x="42.5" y="203.7451">&#160;</text><ellipse cx="33.5" cy="216.6953" fill="#84BE84" rx="3" ry="3" style="stroke:#038048;stroke-width:1;"/><text fill="#000000" font-family="sans-serif" font-size="14" lengthAdjust="spacing" textLength="264.8652" x="42.5" y="220.042">log!(context: &amp;str, level: Level, ...) : ()</text><ellipse cx="33.5" cy="232.9922" fill="#84BE84" rx="3" ry="3" style="stroke:#038048;stroke-width:1;"/><text fill="#000000" font-family="sans-serif" font-size="14" lengthAdjust="spacing" textLength="324.9395" x="42.5" y="236.3389">log_enabled!(context: &amp;str, level: Level) : bool</text><ellipse cx="33.5" cy="249.2891" fill="#84BE84" rx="3" ry="3" style="stroke:#038048;stroke-width:1;"/><text fill="#000000" font-family="sans-serif" font-size="14" lengthAdjust="spacing" textLength="85.8936" x="42.5" y="252.6357">fatal!(...) : ()</text><ellipse cx="33.5" cy="265.5859" fill="#84BE84" rx="3" ry="3" style="stroke:#038048;stroke-width:1;"/><text fill="#000000" font-family="sans-serif" font-size="14" lengthAdjust="spacing" textLength="88.874" x="42.5" y="268.9326">error!(...) : ()</text><ellipse cx="33.5" cy="281.8828" fill="#84BE84" rx="3" ry="3" style="stroke:#038048;stroke-width:1;"/><text fill="#000000" font-family="sans-serif" font-size="14" lengthAdjust="spacing" textLength="89.0859" x="42.5" y="285.2295">warn!(...) : ()</text><ellipse cx="33.5" cy="298.1797" fill="#84BE84" rx="3" ry="3" style="stroke:#038048;stroke-width:1;"/><text fill="#000000" font-family="sans-serif" font-size="14" lengthAdjust="spacing" textLength="80.6846" x="42.5" y="301.5264">info!(...) : ()</text><ellipse cx="33.5" cy="314.4766" fill="#84BE84" rx="3" ry="3" style="stroke:#038048;stroke-width:1;"/><text fill="#000000" font-family="sans-serif" font-size="14" lengthAdjust="spacing" textLength="98.5742" x="42.5" y="317.8232">debug!(...) : ()</text><ellipse cx="33.5" cy="330.7734" fill="#84BE84" rx="3" ry="3" style="stroke:#038048;stroke-width:1;"/><text fill="#000000" font-family="sans-serif" font-size="14" lengthAdjust="spacing" textLength="90.5625" x="42.5" y="334.1201">trace!(...) : ()</text></g><!--class mw_log_fmt_macro--><g id="elem_mw_log_fmt_macro"><rect codeLine="39" fill="#F1F1F1" height="72.5625" id="mw_log_fmt_macro" rx="2.5" ry="2.5" style="stroke:#181818;stroke-width:0.5;" width="497.8984" x="379" y="449.5"/><ellipse cx="555.8389" cy="469.6328" fill="#ADD1B2" rx="11" ry="11" style="stroke:#181818;stroke-width:1;"/><path d="M558.8076,475.2734 Q558.2295,475.5703 557.5889,475.7109 Q556.9482,475.8672 556.2451,475.8672 Q553.7451,475.8672 552.417,474.2266 Q551.1045,472.5703 551.1045,469.4453 Q551.1045,466.3203 552.417,464.6641 Q553.7451,463.0078 556.2451,463.0078 Q556.9482,463.0078 557.5889,463.1641 Q558.2451,463.3203 558.8076,463.6172 L558.8076,466.3359 Q558.1826,465.7578 557.5889,465.4922 Q556.9951,465.2109 556.3701,465.2109 Q555.0264,465.2109 554.3389,466.2891 Q553.6514,467.3516 553.6514,469.4453 Q553.6514,471.5391 554.3389,472.6172 Q555.0264,473.6797 556.3701,473.6797 Q556.9951,473.6797 557.5889,473.4141 Q558.1826,473.1328 558.8076,472.5547 L558.8076,475.2734 Z " fill="#000000"/><text fill="#000000" font-family="sans-serif" font-size="12" font-style="italic" lengthAdjust="spacing" textLength="59.7832" x="614.3076" y="465.6387">&#171;module&#187;</text><text fill="#000000" font-family="sans-serif" font-size="14" lengthAdjust="spacing" textLength="135.7207" x="576.3389" y="481.4639">mw_log_fmt_macro</text><line style="stroke:#181818;stroke-width:0.5;" x1="380" x2="875.8984" y1="489.7656" y2="489.7656"/><line style="stroke:#181818;stroke-width:0.5;" x1="380" x2="875.8984" y1="497.7656" y2="497.7656"/><ellipse cx="390" cy="511.4141" fill="#84BE84" rx="3" ry="3" style="stroke:#038048;stroke-width:1;"/><text fill="#000000" font-family="sans-serif" font-size="14" lengthAdjust="spacing" textLength="471.8984" x="399" y="514.7607">mw_log_format_args!(format_string: &amp;str, args...) : Arguments&lt;'_&gt;</text></g><!--class ScoreDebug--><g id="elem_ScoreDebug"><rect codeLine="44" fill="#F1F1F1" height="72.5625" id="ScoreDebug" rx="2.5" ry="2.5" style="stroke:#181818;stroke-width:0.5;" width="473.7334" x="1151" y="162.5"/><ellipse cx="1335.3374" cy="182.6328" fill="#B4A7E5" rx="11" ry="11" style="stroke:#181818;stroke-width:1;"/><path d="M1331.2593,178.3984 L1331.2593,176.2422 L1338.6499,176.2422 L1338.6499,178.3984 L1336.1812,178.3984 L1336.1812,186.4766 L1338.6499,186.4766 L1338.6499,188.6328 L1331.2593,188.6328 L1331.2593,186.4766 L1333.728,186.4766 L1333.728,178.3984 L1331.2593,178.3984 Z " fill="#000000"/><text fill="#000000" font-family="sans-serif" font-size="12" font-style="italic" lengthAdjust="spacing" textLength="39.8438" x="1384.1948" y="178.6387">&#171;trait&#187;</text><ellipse cx="1360.8374" cy="189.1172" fill="#84BE84" rx="3" ry="3" style="stroke:#038048;stroke-width:1;"/><text fill="#000000" font-family="sans-serif" font-size="14" font-style="italic" lengthAdjust="spacing" textLength="85.5586" x="1366.8374" y="194.4639">ScoreDebug</text><line style="stroke:#181818;stroke-width:0.5;" x1="1152" x2="1623.7334" y1="202.7656" y2="202.7656"/><line style="stroke:#181818;stroke-width:0.5;" x1="1152" x2="1623.7334" y1="210.7656" y2="210.7656"/><ellipse cx="1162" cy="224.4141" fill="#84BE84" rx="3" ry="3" style="stroke:#038048;stroke-width:1;"/><text fill="#000000" font-family="sans-serif" font-size="14" lengthAdjust="spacing" textLength="447.7334" x="1171" y="227.7607">fmt(&amp;self, f: &amp;mut dyn ScoreWrite, spec: &amp;FormatSpec) : Result</text></g><!--class mw_log_fmt--><g id="elem_mw_log_fmt"><rect codeLine="48" fill="#F1F1F1" height="105.1563" id="mw_log_fmt" rx="2.5" ry="2.5" style="stroke:#181818;stroke-width:0.5;" width="495.834" x="620" y="146.5"/><ellipse cx="821.4243" cy="166.6328" fill="#ADD1B2" rx="11" ry="11" style="stroke:#181818;stroke-width:1;"/><path d="M824.3931,172.2734 Q823.8149,172.5703 823.1743,172.7109 Q822.5337,172.8672 821.8306,172.8672 Q819.3306,172.8672 818.0024,171.2266 Q816.6899,169.5703 816.6899,166.4453 Q816.6899,163.3203 818.0024,161.6641 Q819.3306,160.0078 821.8306,160.0078 Q822.5337,160.0078 823.1743,160.1641 Q823.8306,160.3203 824.3931,160.6172 L824.3931,163.3359 Q823.7681,162.7578 823.1743,162.4922 Q822.5806,162.2109 821.9556,162.2109 Q820.6118,162.2109 819.9243,163.2891 Q819.2368,164.3516 819.2368,166.4453 Q819.2368,168.5391 819.9243,169.6172 Q820.6118,170.6797 821.9556,170.6797 Q822.5806,170.6797 823.1743,170.4141 Q823.7681,170.1328 824.3931,169.5547 L824.3931,172.2734 Z " fill="#000000"/><text fill="#000000" font-family="sans-serif" font-size="12" font-style="italic" lengthAdjust="spacing" textLength="59.7832" x="854.2754" y="162.6387">&#171;module&#187;</text><text fill="#000000" font-family="sans-serif" font-size="14" lengthAdjust="spacing" textLength="84.4854" x="841.9243" y="178.4639">mw_log_fmt</text><line style="stroke:#181818;stroke-width:0.5;" x1="621" x2="1114.834" y1="186.7656" y2="186.7656"/><line style="stroke:#181818;stroke-width:0.5;" x1="621" x2="1114.834" y1="194.7656" y2="194.7656"/><ellipse cx="631" cy="208.4141" fill="#84BE84" rx="3" ry="3" style="stroke:#038048;stroke-width:1;"/><text fill="#000000" font-family="sans-serif" font-size="14" lengthAdjust="spacing" textLength="469.834" x="640" y="211.7607">write(output: &amp;mut dyn ScoreWrite, args: Arguments&lt;'_&gt;) : Result</text><text fill="#000000" font-family="sans-serif" font-size="14" lengthAdjust="spacing" textLength="4.4502" x="640" y="228.0576">&#160;</text><ellipse cx="631" cy="241.0078" fill="#84BE84" rx="3" ry="3" style="stroke:#038048;stroke-width:1;"/><text fill="#000000" font-family="sans-serif" font-size="14" lengthAdjust="spacing" textLength="339.6982" x="640" y="244.3545">score_write!(format_string: &amp;str, args...) : Result</text></g><!--link mw_log to Level--><g id="link_mw_log_Level"><path codeLine="55" d="M220.08,341.25 C209.18,364.62 198.25,388.04 188.47,408.99 " fill="transparent" id="mw_log-Level" style="stroke:#181818;stroke-width:1;"/></g><!--link mw_log to LevelFilter--><g id="link_mw_log_LevelFilter"><path codeLine="56" d="M286,341.25 C286,361.68 286,382.15 286,400.98 " fill="transparent" id="mw_log-LevelFilter" style="stroke:#181818;stroke-width:1;"/></g><!--link mw_log to mw_log_fmt_macro--><g id="link_mw_log_mw_log_fmt_macro"><path codeLine="57" d="M455.25,341.04 C503.5,381.25 551.94,421.61 585.19,449.33 " fill="transparent" id="mw_log-mw_log_fmt_macro" style="stroke:#181818;stroke-width:1;"/></g><!--link mw_log to mw_log_fmt--><g id="link_mw_log_mw_log_fmt"><path codeLine="58" d="M549.67,199 C555.465,199 561.26,199 567.0563,199 C569.9544,199 572.8528,199 575.7517,199 C576.1141,199 576.4765,199 576.8388,199 C576.8841,199 576.9294,199 576.9747,199 " fill="transparent" id="mw_log-mw_log_fmt" style="stroke:#181818;stroke-width:1;"/></g><!--SRC=[jLJRYjim47ttLoWlkmxnvWE2CRHi0uL0eIdier7aiMfM5oEDkoab_rv9zlgssfO-r0ysapCpPtJcA2rbpvG34PgJF6TQjbg1mg8WlnBYdXseJf8J_03XS1-Ca7-E5AaOeq_6Q3D6JzIeCVYiQZq6Zt3f-1XzCvH1Y6x9clFO20GJO_vIr_zt2YQejKI-bBqqKbUTWCK8EmleKGucxJy7SdTlaMB3IFLJaPFcMt8WNy5s0lDqcv4pu2baXY6BPQkBlaArRlXHN_EXL_4lpIIzbi9Bc8RtOQwdxvDkf_mfroEpn2bbcChZwoCcYwnDohH2kA9Bj6WoCgVFo7w_NxExeX8KlGYe_bZiwovQJulUrNxlcpJI4xmYKUJ5-I4ADCuRKQ3oFeaYw3spHYBsAMlf5yACViT8hsdQI8ebDTnkqY5mCZIAl-hXeO7kW-6TT5VLvlTbCMTkXoizSS-f6gUlgTtSvCoqWN09t5JkA0qkXkeLbfZUMH1rHcetW-mmR3sKFfa68IEs1UQWOnZtx8B9fMEls-IHjIvnHVfLUO9KTzXs-0wvrsCbnOn-sSxwkZ8q_RkwRmumEyRmd_3mqFiozjli-ap8sWmBs3JyEyvpablo6m00]--></g></svg>