<svg xmlns="http://www.w3.org/2000/svg" xmlns:xlink="http://www.w3.org/1999/xlink" contentStyleType="text/css" data-diagram-type="SEQUENCE" height="177px" preserveAspectRatio="none" style="width:470px;height:177px;background:#FFFFFF;" version="1.1" viewBox="0 0 470 177" width="470px" zoomAndPan="magnify"><defs/><g><g><title>User</title><rect fill="transparent" height="106.2656" width="8" x="23.9551" y="36.2969"/><line style="stroke:#181818;stroke-width:0.5;stroke-dasharray:5.0,5.0;" x1="27" x2="27" y1="36.2969" y2="142.5625"/></g><g><title>&lt;&lt;component&gt;&gt; log</title><rect fill="transparent" height="106.2656" width="8" x="133.9595" y="36.2969"/><line style="stroke:#181818;stroke-width:0.5;stroke-dasharray:5.0,5.0;" x1="137.8975" x2="137.8975" y1="36.2969" y2="142.5625"/></g><g><title>&lt;&lt;component&gt;&gt; mw_log_subscriber</title><rect fill="transparent" height="106.2656" width="8" x="336.1006" y="36.2969"/><line style="stroke:#181818;stroke-width:0.5;stroke-dasharray:5.0,5.0;" x1="340.0215" x2="340.0215" y1="36.2969" y2="142.5625"/></g><rect fill="#E2E2F0" height="30.2969" rx="2.5" ry="2.5" style="stroke:#181818;stroke-width:0.5;" width="45.9102" x="5" y="5"/><text fill="#000000" font-family="sans-serif" font-size="14" lengthAdjust="spacing" textLength="31.9102" x="12" y="24.9951">User</text><rect fill="#E2E2F0" height="30.2969" rx="2.5" ry="2.5" style="stroke:#181818;stroke-width:0.5;" width="45.9102" x="5" y="141.5625"/><text fill="#000000" font-family="sans-serif" font-size="14" lengthAdjust="spacing" textLength="31.9102" x="12" y="161.5576">User</text><rect fill="#E2E2F0" height="30.2969" rx="2.5" ry="2.5" style="stroke:#181818;stroke-width:0.5;" width="136.124" x="69.8975" y="5"/><text fill="#000000" font-family="sans-serif" font-size="14" lengthAdjust="spacing" textLength="122.124" x="76.8975" y="24.9951">&#171;component&#187; log</text><rect fill="#E2E2F0" height="30.2969" rx="2.5" ry="2.5" style="stroke:#181818;stroke-width:0.5;" width="136.124" x="69.8975" y="141.5625"/><text fill="#000000" font-family="sans-serif" font-size="14" lengthAdjust="spacing" textLength="122.124" x="76.8975" y="161.5576">&#171;component&#187; log</text><rect fill="#E2E2F0" height="30.2969" rx="2.5" ry="2.5" style="stroke:#181818;stroke-width:0.5;" width="248.1582" x="216.0215" y="5"/><text fill="#000000" font-family="sans-serif" font-size="14" lengthAdjust="spacing" textLength="234.1582" x="223.0215" y="24.9951">&#171;component&#187; mw_log_subscriber</text><rect fill="#E2E2F0" height="30.2969" rx="2.5" ry="2.5" style="stroke:#181818;stroke-width:0.5;" width="248.1582" x="216.0215" y="141.5625"/><text fill="#000000" font-family="sans-serif" font-size="14" lengthAdjust="spacing" textLength="234.1582" x="223.0215" y="161.5576">&#171;component&#187; mw_log_subscriber</text><polygon fill="#181818" points="125.9595,63.4297,135.9595,67.4297,125.9595,71.4297,129.9595,67.4297" style="stroke:#181818;stroke-width:1;"/><line style="stroke:#181818;stroke-width:1;" x1="27.9551" x2="131.9595" y1="67.4297" y2="67.4297"/><text fill="#000000" font-family="sans-serif" font-size="13" lengthAdjust="spacing" textLength="86.0044" x="34.9551" y="62.3638">Log message</text><polygon fill="#181818" points="328.1006,92.5625,338.1006,96.5625,328.1006,100.5625,332.1006,96.5625" style="stroke:#181818;stroke-width:1;"/><line style="stroke:#181818;stroke-width:1;" x1="137.9595" x2="334.1006" y1="96.5625" y2="96.5625"/><text fill="#000000" font-family="sans-serif" font-size="13" lengthAdjust="spacing" textLength="86.0044" x="144.9595" y="91.4966">Log message</text><polygon fill="#181818" points="148.9595,106.5625,138.9595,110.5625,148.9595,114.5625,144.9595,110.5625" style="stroke:#181818;stroke-width:1;"/><line style="stroke:#181818;stroke-width:1;stroke-dasharray:2.0,2.0;" x1="142.9595" x2="339.1006" y1="110.5625" y2="110.5625"/><polygon fill="#181818" points="38.9551,120.5625,28.9551,124.5625,38.9551,128.5625,34.9551,124.5625" style="stroke:#181818;stroke-width:1;"/><line style="stroke:#181818;stroke-width:1;stroke-dasharray:2.0,2.0;" x1="32.9551" x2="136.9595" y1="124.5625" y2="124.5625"/><!--SRC=[VOyn3iCW34LtJc5bpmMgY1DaxHmPIX5giH5srUkNf4c4EdJzVkz_kM3Lv5D1KXYk4ke0A81UkPhItwR9SovCWTHQU7BSm7jbqa2tVsn-BmrVvEN4r-Js2OV-iOfcsuBHdbrmWPaZv222CHXpvetPhH_aICUkfVTQ_Fte0m00]--></g></svg>